<?xml version="1.0" encoding="UTF-8"?>
<svg width="55px" height="64px" viewBox="0 0 55 64" version="1.1" xmlns="http://www.w3.org/2000/svg" xmlns:xlink="http://www.w3.org/1999/xlink">
    <!-- Generator: Sketch 49 (51002) - http://www.bohemiancoding.com/sketch -->
    <title>bride</title>
    <desc>Created with Sketch.</desc>
    <defs></defs>
    <g id="Page-1" stroke="none" stroke-width="1" fill="none" fill-rule="evenodd">
        <g id="01_Home" transform="translate(-1082.000000, -2673.000000)" fill="#1A2B48" fill-rule="nonzero">
            <g id="services" transform="translate(135.000000, 2321.000000)">
                <g id="wedding" transform="translate(780.000000, 292.000000)">
                    <g id="bride" transform="translate(167.000000, 60.000000)">
                        <path d="M21.7809591,25.2324678 C21.2642183,25.2324678 20.8454113,25.6513996 20.8454113,26.1680156 L20.8454113,27.8832904 C20.8454113,28.4000312 21.2643431,28.8188382 21.7809591,28.8188382 C22.2976998,28.8188382 22.7165068,28.3999064 22.7165068,27.8832904 L22.7165068,26.1680156 C22.7165068,25.6513996 22.2976998,25.2324678 21.7809591,25.2324678 Z" id="Shape"></path>
                        <path d="M33.3614659,25.2325926 C32.8448499,25.2325926 32.4259181,25.6513996 32.4259181,26.1681404 L32.4259181,27.8834152 C32.4259181,28.4001559 32.8448499,28.818963 33.3614659,28.818963 C33.8780819,28.818963 34.2970136,28.4000312 34.2970136,27.8834152 L34.2970136,26.1681404 C34.2970136,25.6513996 33.8779571,25.2325926 33.3614659,25.2325926 Z" id="Shape"></path>
                        <path d="M31.3092242,33.6775984 C30.8897934,33.3756881 30.3050604,33.4711267 30.0033996,33.8904327 C29.54754,34.5238207 28.5930292,34.9330214 27.5712749,34.9330214 C26.5495205,34.9330214 25.5950097,34.5238207 25.1392749,33.8904327 C24.837614,33.4710019 24.2530058,33.3755634 23.8334503,33.6775984 C23.4140195,33.979384 23.3187057,34.5639922 23.6204912,34.983423 C24.4286628,36.1066043 25.9425809,36.8042417 27.5713996,36.8042417 C29.2002183,36.8042417 30.7140117,36.1066043 31.522308,34.983423 C31.8238441,34.5639922 31.7285302,33.9792593 31.3092242,33.6775984 Z" id="Shape"></path>
                        <path d="M51.4486394,44.050963 L48.699883,44.9215127 C48.207345,45.0774581 47.9345029,45.603306 48.0904483,46.0959688 C48.2465185,46.5885068 48.7718674,46.8615984 49.2649045,46.7054035 L52.0135361,45.8348538 C53.8927407,45.2397661 55.1257076,43.4476413 55.0120546,41.476616 C54.7838752,37.52446 53.8218791,29.518347 49.9432047,20.3017232 C45.1087719,8.81503314 38.18754,4.51443275 33.1087096,2.94375049 C31.9055595,1.16884211 29.8724055,0 27.5712749,0 C25.2701442,0 23.2368655,1.16884211 22.0337154,2.94375049 C16.954885,4.51430799 10.033653,8.81503314 5.19959454,20.3019727 C1.32092008,29.5185965 0.358923977,37.5248343 0.130744639,41.4768655 C0.0169668616,43.4478908 1.25005848,45.2400156 3.1291384,45.8351033 L5.85593762,46.6986667 C6.34822612,46.8546121 6.87432359,46.58177 7.03039376,46.089232 C7.18633918,45.5965692 6.91362183,45.070846 6.42095906,44.9147758 L3.69403509,44.0512125 C2.63148538,43.7147446 1.93434698,42.7004756 1.99872125,41.584655 C2.22003899,37.7526394 3.15408967,29.986308 6.92422612,21.0276803 C10.9949006,11.3545731 16.5499259,7.11535283 21.0334191,5.28704873 C21.0325458,5.29129045 21.031922,5.29565692 21.0310487,5.29989864 C21.0112125,5.39346589 20.9941209,5.48790643 20.9782768,5.58297076 C20.9751579,5.60193372 20.9711657,5.62077193 20.9680468,5.63985965 C20.9527018,5.73729435 20.9401014,5.83560234 20.9289981,5.93440936 C20.9271267,5.95150097 20.9242573,5.96834308 20.9225107,5.9854347 C20.9122807,6.08361793 20.9049201,6.18254971 20.8990565,6.28185575 C20.8979337,6.29957115 20.8959376,6.31716179 20.8950643,6.33487719 C20.889076,6.45090058 20.8858324,6.56767251 20.8858324,6.68519298 C20.8858324,6.80396101 20.8894503,6.92310331 20.8959376,7.04212086 C20.8980585,7.08191813 20.9023002,7.12159064 20.9051696,7.16138791 C20.9101598,7.23112671 20.9142768,7.30074074 20.9215127,7.37035478 C18.0858012,8.59708382 15.6579181,10.5740975 13.8667914,13.1232437 C12.5459961,15.0030721 11.642386,17.1047173 11.1840312,19.3208889 C11.1802885,19.3391033 11.1761715,19.3573177 11.1724288,19.3756569 C11.1493489,19.4890604 11.1276413,19.6027135 11.1069318,19.7167407 C11.0938324,19.7882261 11.0818558,19.859961 11.0697544,19.9316959 C11.0466745,20.0691774 11.0248421,20.2067836 11.0051306,20.3450136 C10.9886628,20.4597895 10.9729435,20.5748148 10.958846,20.6903392 C10.9497388,20.7648187 10.9412554,20.839423 10.9331462,20.914152 C10.9166784,21.065232 10.9020819,21.2168109 10.889731,21.3691384 C10.8864873,21.4090604 10.8829942,21.4488577 10.8801248,21.4889045 C10.8673996,21.661193 10.8580429,21.8343548 10.8505575,22.0080156 C10.8484366,22.0592904 10.8464405,22.1105653 10.844694,22.1618402 C10.8383314,22.3515945 10.8338402,22.5419727 10.8338402,22.7332242 L10.8338402,22.9374503 C10.8338402,22.9997037 10.8375828,23.0609591 10.8441949,23.1214659 C10.8463158,23.1415517 10.8504327,23.1608889 10.8533021,23.1807251 C10.8590409,23.2207719 10.8650292,23.2608187 10.8735127,23.2999922 C10.8785029,23.3229474 10.885115,23.3452788 10.8909786,23.3678596 C10.9000858,23.4029162 10.9094425,23.4379727 10.9207953,23.4721559 C10.9284055,23.4953606 10.9372632,23.5178168 10.9458713,23.5405224 C10.9582222,23.5730838 10.9709474,23.605271 10.9852943,23.6368343 C10.9895361,23.6463158 10.992655,23.6564211 10.9971462,23.6659025 C10.9950253,23.6680234 10.9930292,23.670269 10.9909084,23.6723899 C10.9716959,23.6914776 10.953232,23.7111891 10.9346433,23.7307758 C10.9191735,23.7469942 10.9033294,23.762963 10.8882339,23.7794308 C10.8696452,23.7997661 10.8518051,23.8208499 10.8337154,23.8416842 C10.8193684,23.8582768 10.8046472,23.8744951 10.7906745,23.891462 C10.7727096,23.9130448 10.7556179,23.9352515 10.7382768,23.9573333 C10.7249279,23.9741754 10.7113294,23.9908928 10.6983548,24.0081092 C10.6812632,24.0308148 10.6650448,24.0541442 10.648577,24.0773489 C10.6362261,24.0946901 10.6236257,24.1116569 10.6116491,24.1292476 C10.595306,24.1532008 10.579961,24.1777778 10.5643665,24.20223 C10.5532632,24.2196959 10.5416608,24.2367875 10.530807,24.2545029 C10.515462,24.2795789 10.501115,24.3052788 10.4865185,24.3308538 C10.4762885,24.3485692 10.4656842,24.3660351 10.4559532,24.384 C10.441731,24.4099493 10.4286316,24.4363977 10.4151579,24.4627212 C10.4059259,24.4809357 10.3960702,24.4989006 10.3872125,24.5172398 C10.3742378,24.5439376 10.362386,24.5711345 10.3501598,24.5983314 C10.3418012,24.6170448 10.3328187,24.635384 10.3248343,24.654347 C10.3131072,24.6819181 10.3025029,24.7099883 10.2915244,24.7379337 C10.2841637,24.7568967 10.2761793,24.7754854 10.2690682,24.7946979 C10.2585887,24.8232671 10.2491072,24.85246 10.2393762,24.8814035 C10.2330136,24.9004912 10.2260273,24.9192047 10.220039,24.9384172 C10.2109318,24.9673606 10.2030721,24.9968031 10.1948382,25.0262456 C10.1893489,25.0459571 10.1832359,25.0654191 10.1779961,25.0853801 C10.1705107,25.1145731 10.1641481,25.1441404 10.1574113,25.1735828 C10.1527953,25.1941676 10.1474308,25.2143782 10.1431891,25.2350877 C10.1368265,25.2659025 10.1317115,25.2972164 10.126347,25.3284055 C10.1229786,25.3479922 10.1188616,25.3674542 10.1158674,25.3872904 C10.1107524,25.4208499 10.106885,25.4547836 10.1028928,25.4885926 C10.1007719,25.5064327 10.0979025,25.5241481 10.0960312,25.5419883 C10.0924133,25.5770448 10.0902924,25.6124756 10.087922,25.6479064 C10.0867992,25.6649981 10.0849279,25.6819649 10.0840546,25.6991813 C10.0813099,25.7518285 10.0799376,25.8048499 10.0799376,25.8581209 L10.0799376,28.2373489 C10.0799376,29.9370292 11.4627368,31.3198285 13.1624172,31.3198285 L13.7174581,31.3198285 C13.7243197,31.3449045 13.7321793,31.3696062 13.7392904,31.3946823 C13.7503938,31.4339805 13.7621209,31.4730292 13.7735984,31.5123275 C13.7976764,31.5950409 13.8218791,31.6777544 13.8474542,31.7599688 C13.8504483,31.7694503 13.8535673,31.778807 13.8565614,31.7884133 C13.9927953,32.2229396 14.1501131,32.6504795 14.3270175,33.0699103 C14.3296374,33.0761481 14.3321326,33.082386 14.3347524,33.088499 C14.927345,34.4877661 15.7408811,35.7939649 16.7471657,36.9457154 C18.1768733,38.5820195 19.9676257,39.8793606 21.9562417,40.7253333 L21.9562417,41.9782612 C21.9562417,42.5381676 21.55777,43.0245926 21.0088421,43.1350019 L19.868694,43.3641793 C19.8326394,43.3714152 19.7973333,43.3807719 19.7630253,43.3918752 L10.9066979,45.9995322 C8.63500975,46.6684756 6.68431969,48.0244522 5.2657154,49.9208733 C3.84723587,51.8172943 3.09745029,54.0713918 3.09745029,56.4396413 L3.09745029,61.8867524 C3.09745029,62.9833606 3.98958285,63.8756179 5.08631579,63.8756179 L50.0561092,63.8756179 C50.0564834,63.8752437 50.0556101,63.8752437 50.0561092,63.8752437 C51.1527173,63.8752437 52.0449747,62.9831111 52.0449747,61.8863782 L52.0449747,56.4392671 C52.0449747,54.0710175 51.2951891,51.8167953 49.8767096,49.920499 C48.45823,48.024078 46.50754,46.6681014 44.2357271,45.9991579 L35.3797739,43.3916257 C35.3453411,43.3803977 35.3100351,43.3711657 35.2738558,43.3638051 L33.881575,43.0839766 C33.3326472,42.973692 32.9341754,42.4871423 32.9341754,41.9272359 L32.9341754,40.8288811 C33.6482807,40.5409435 34.3329435,40.1952437 34.9844211,39.8005146 C35.002386,39.7896608 35.0203509,39.7789318 35.0383158,39.7679532 C35.1140429,39.7215439 35.189271,39.6745107 35.2641248,39.6268538 C35.3023002,39.6025263 35.3403509,39.5779493 35.3782768,39.5532476 C35.4386589,39.5139493 35.4990409,39.4745263 35.5587992,39.43423 C35.6231735,39.3909396 35.686924,39.3469006 35.7505497,39.3026121 C35.785731,39.2780351 35.8212865,39.2540819 35.8563431,39.2292554 C37.9733333,37.7301832 39.6681481,35.6732008 40.7262066,33.2746355 C40.7274542,33.2718908 40.728577,33.2691462 40.7298246,33.2664016 C40.7798519,33.1527485 40.8283821,33.0384717 40.87554,32.9233216 C40.8836491,32.9034854 40.891883,32.8836491 40.8998674,32.8638129 C40.940039,32.7643821 40.9790877,32.6644522 41.0170136,32.5640234 C41.0276179,32.536078 41.0384717,32.5082573 41.0489513,32.4801871 C41.0857544,32.3808811 41.1213099,32.2809513 41.156117,32.1806472 C41.1649747,32.1550721 41.1744561,32.1296218 41.1831891,32.103922 C41.2229864,31.9869006 41.2611618,31.8691306 41.2979649,31.7507368 C41.3164288,31.6913528 41.3336452,31.6314698 41.3513606,31.5717115 C41.3698246,31.5095828 41.3884133,31.4474542 41.4060039,31.3849513 C41.412117,31.3631189 41.4189786,31.3415361 41.4250916,31.3197037 L41.9802573,31.3197037 C43.6799376,31.3197037 45.0627368,29.9369045 45.0627368,28.2372242 L45.0627368,25.8579961 C45.0627368,25.8047251 45.0613645,25.7517037 45.0586199,25.6990565 C45.0577466,25.6818402 45.0558752,25.6648733 45.0547524,25.6477817 C45.0523821,25.6123509 45.0501365,25.5769201 45.0466433,25.5418635 C45.0447719,25.5238986 45.0420273,25.506308 45.0397817,25.4884678 C45.0356647,25.4546589 45.031922,25.4207251 45.026807,25.3871657 C45.0238129,25.3674542 45.0196959,25.3479922 45.0163275,25.3282807 C45.010963,25.2970916 45.005848,25.2657778 44.9994854,25.234963 C44.9952437,25.2142534 44.9898791,25.1939181 44.9852632,25.1734581 C44.9785263,25.1440156 44.9722885,25.1144483 44.9646784,25.0852554 C44.9595634,25.0654191 44.9534503,25.0458324 44.9478363,25.0261209 C44.9396023,24.9968031 44.9317427,24.9673606 44.9226355,24.9382924 C44.9166472,24.9190799 44.9096608,24.9002417 44.9032982,24.8812788 C44.8935673,24.8523353 44.8842105,24.8231423 44.8736062,24.7945731 C44.8664951,24.7754854 44.8586355,24.7567719 44.8511501,24.737809 C44.8401715,24.7098635 44.8295673,24.6816686 44.8178402,24.6542222 C44.8098558,24.635384 44.8008733,24.6169201 44.7925146,24.5982066 C44.7802885,24.5711345 44.7684366,24.5438129 44.755462,24.517115 C44.7464795,24.4986511 44.7367485,24.4808109 44.7275166,24.4625965 C44.7140429,24.4362729 44.7009435,24.4096998 44.6867212,24.3838752 C44.6768655,24.3659103 44.6662612,24.3484444 44.6561559,24.330729 C44.6415595,24.305154 44.6270877,24.2794542 44.6118674,24.2543782 C44.6010136,24.2366628 44.5895361,24.2195712 44.578308,24.2021053 C44.5627135,24.177653 44.5472437,24.153076 44.5310253,24.1291228 C44.5190487,24.1115322 44.5063236,24.0945653 44.4940975,24.0772242 C44.4776296,24.0540195 44.4614113,24.0306901 44.4443197,24.0079844 C44.431345,23.990768 44.4177466,23.9741754 44.4043977,23.9572086 C44.3870565,23.9351267 44.3699649,23.9129201 44.352,23.8913372 C44.3380273,23.8744951 44.323306,23.858152 44.3089591,23.8415595 C44.2908694,23.8207251 44.2730292,23.7996413 44.2544405,23.779306 C44.239345,23.7627135 44.223501,23.7468694 44.2080312,23.7306511 C44.1893177,23.7110643 44.1708538,23.6913528 44.1516413,23.6722651 C44.1495205,23.6701442 44.1475244,23.6678986 44.1454035,23.6657778 C44.1498947,23.6564211 44.1530136,23.646191 44.1572554,23.6367096 C44.1714776,23.6051462 44.1843275,23.5729591 44.1966784,23.5403977 C44.2052865,23.517692 44.2141442,23.4951111 44.2217544,23.4720312 C44.2331072,23.437848 44.2424639,23.4029162 44.2515712,23.3677349 C44.2574347,23.345154 44.2640468,23.3228226 44.269037,23.2998674 C44.2775205,23.260694 44.2835088,23.2207719 44.2892476,23.1806004 C44.292117,23.1607641 44.2961092,23.1414269 44.2983548,23.1213411 C44.3048421,23.0608343 44.3087096,22.9994542 44.3087096,22.9373255 L44.3087096,22.7330994 C44.3087096,22.5417232 44.3043431,22.3514698 44.2978558,22.1617154 C44.2961092,22.1104405 44.2941131,22.0591657 44.2919922,22.0078908 C44.2845068,21.83423 44.2751501,21.6610682 44.262425,21.4887797 C44.2595556,21.4488577 44.2560624,21.4089357 44.2528187,21.3690136 C44.2404678,21.2166862 44.2258713,21.0651072 44.2094035,20.9140273 C44.2012943,20.8392982 44.1928109,20.764694 44.1837037,20.6902144 C44.1696062,20.5746901 44.1538869,20.4596647 44.1374191,20.3448889 C44.1177076,20.2066589 44.0958752,20.0690526 44.0727953,19.9315712 C44.060694,19.8598363 44.0485926,19.7879766 44.0356179,19.716616 C44.0149084,19.6025887 43.9932008,19.4889357 43.9701209,19.3755322 C43.9663782,19.357193 43.9622612,19.3391033 43.9585185,19.3207641 C43.5001637,17.1045926 42.5965536,15.0029474 41.2757583,13.1231189 C39.4847563,10.5739727 37.0567485,8.59683431 34.221037,7.37023002 C34.2282729,7.30061598 34.2322651,7.23087719 34.2373801,7.16126316 C34.2402495,7.12146589 34.2444912,7.08179337 34.2466121,7.0419961 C34.2530994,6.9228538 34.2567173,6.80383626 34.2567173,6.68506823 C34.2567173,6.567423 34.2534737,6.45065107 34.2474854,6.33450292 C34.2466121,6.31815984 34.2447407,6.30194152 34.2437427,6.28547368 C34.2377544,6.18467057 34.230269,6.08424172 34.2199142,5.98468616 C34.2182924,5.96946589 34.2157973,5.95449513 34.2141754,5.93927485 C34.2029474,5.83859649 34.1900975,5.73841715 34.1743782,5.63911111 C34.1715088,5.6211462 34.1677661,5.60355556 34.1647719,5.58559064 C34.1488031,5.48965302 34.131462,5.39421442 34.111501,5.29964912 C34.1106277,5.29540741 34.1100039,5.29104094 34.1091306,5.28679922 C38.5926238,7.11522807 44.1476491,11.3544483 48.2184483,21.0274308 C51.98846,29.9859337 52.9226355,37.7522651 53.1439532,41.5844055 C53.2083275,42.7002261 52.5111891,43.7144951 51.4486394,44.050963 Z M22.7671579,6.38952047 C22.7687797,6.36307212 22.7711501,6.33674854 22.7731462,6.31042495 C22.7791345,6.23407407 22.7867446,6.15797271 22.7962261,6.08224561 C22.7992203,6.0582924 22.8019649,6.03433918 22.8053333,6.01051072 C22.8329045,5.81489279 22.8724522,5.62152047 22.9237271,5.43139181 C22.9299649,5.40831189 22.9367018,5.38560624 22.9433138,5.36277583 C22.9638986,5.29041715 22.9864795,5.21880702 23.0104327,5.14744639 C23.0191657,5.12149708 23.0276491,5.095423 23.0367563,5.06959844 C23.0678207,4.98239376 23.1010058,4.89606238 23.1370604,4.81072904 C23.1481637,4.78440546 23.1607641,4.75883041 23.1723665,4.73275634 C23.1984405,4.67412086 23.2253879,4.61585965 23.2538324,4.55822222 C23.2732943,4.51892398 23.2933801,4.48 23.3138402,4.44132554 C23.3374191,4.39666277 23.3622456,4.35249903 23.3871969,4.30846004 C24.2167018,2.85442495 25.7807719,1.87122027 27.5712749,1.87122027 C29.361154,1.87122027 30.9248499,2.85380117 31.7543548,4.30721248 C31.7799298,4.352 31.8051306,4.39703704 31.8290838,4.4425731 C31.8491696,4.48062378 31.8688811,4.51879922 31.8879688,4.55747368 C31.9171618,4.61673294 31.9449825,4.67649123 31.9718051,4.73674854 C31.9826589,4.76132554 31.9945107,4.78527875 32.0049903,4.80998051 C32.0412943,4.89593762 32.074729,4.98289279 32.1060429,5.07072125 C32.1149006,5.09554776 32.1230097,5.12074854 32.1314932,5.14582456 C32.1559454,5.21818324 32.1787758,5.29091618 32.1997349,5.36439766 C32.2060975,5.38647953 32.2125848,5.40843665 32.2185731,5.43064327 C32.2699727,5.6211462 32.3096452,5.81501754 32.3373411,6.01088499 C32.3407096,6.03446394 32.3434542,6.05816764 32.3463236,6.08187135 C32.3559298,6.15784795 32.36354,6.23407407 32.3695283,6.31054971 C32.3715244,6.33687329 32.3738947,6.36307212 32.3755166,6.38952047 C32.3815049,6.48782846 32.3854971,6.58638596 32.3854971,6.68531774 C32.3854971,6.69018324 32.3851228,6.69504873 32.3851228,6.69991423 C32.329731,6.68332164 32.2737154,6.66909942 32.2180741,6.6531306 C32.1507057,6.63366862 32.0830877,6.61495517 32.015345,6.59624172 C31.8747446,6.55756725 31.73377,6.52063938 31.5921715,6.4857076 C31.4988538,6.46262768 31.4056608,6.43954776 31.3118441,6.41808967 C31.2252632,6.39825341 31.1384327,6.37966472 31.0516023,6.36132554 C30.961653,6.34223782 30.8714542,6.32402339 30.7810058,6.30643275 C30.7021598,6.29108772 30.6234386,6.27524366 30.5444678,6.26102144 C30.3910175,6.23345029 30.2368187,6.20812476 30.0819961,6.18467057 C30.0126316,6.17419103 29.9430175,6.16495906 29.8734035,6.15535283 C29.759501,6.13963353 29.6453489,6.12503704 29.5308226,6.11156335 C29.4669474,6.10407797 29.4030721,6.09634308 29.3389474,6.08960624 C29.1704016,6.07189084 29.001232,6.0562963 28.8313138,6.04357115 C28.7882729,6.04032749 28.7451072,6.03820663 28.7019415,6.03533723 C28.5595945,6.02585575 28.4168733,6.01812086 28.273653,6.01213255 C28.2213801,6.0100117 28.1689825,6.00776608 28.1167096,6.00614425 C27.9355634,6.0002807 27.7540429,5.9962885 27.5715244,5.9962885 C27.3890058,5.9962885 27.2074854,6.0002807 27.0263392,6.00614425 C26.9739415,6.00776608 26.9216686,6.0100117 26.8693957,6.01213255 C26.7261754,6.01812086 26.5833294,6.02585575 26.4411072,6.03533723 C26.3980663,6.03820663 26.3547758,6.04032749 26.3117349,6.04357115 C26.1418168,6.0562963 25.9725224,6.07189084 25.8041014,6.08960624 C25.7399766,6.09634308 25.6762261,6.10420273 25.6122261,6.11156335 C25.4976998,6.12503704 25.383423,6.13950877 25.2696452,6.15535283 C25.2000312,6.16495906 25.1304172,6.17419103 25.0610526,6.18467057 C24.90623,6.208 24.7520312,6.23332554 24.5985809,6.26102144 C24.5194854,6.27524366 24.4408889,6.29108772 24.3620429,6.30643275 C24.2715945,6.32402339 24.1813957,6.34223782 24.0914464,6.36132554 C24.004616,6.37978947 23.9177856,6.39825341 23.8312047,6.41808967 C23.7373879,6.43954776 23.6440702,6.46262768 23.5508772,6.4857076 C23.4094035,6.52063938 23.2684288,6.55756725 23.1277037,6.59624172 C23.059961,6.61495517 22.9923431,6.63366862 22.9249747,6.6531306 C22.8694581,6.66922417 22.8134425,6.68332164 22.7579259,6.69991423 C22.7579259,6.69504873 22.7575517,6.69018324 22.7575517,6.68531774 C22.7571774,6.58638596 22.7610448,6.48782846 22.7671579,6.38952047 Z M13.1625419,29.4484834 C12.4945965,29.4486082 11.9511579,28.9051696 11.9511579,28.2373489 L11.9511579,25.8581209 C11.9511579,25.1905497 12.493848,24.6474854 13.1612943,24.6468616 L13.2012164,24.6468616 L13.2012164,27.4945497 C13.2012164,27.6437583 13.2042105,27.7923431 13.2088265,27.9404288 C13.2100741,27.9792281 13.2116959,28.0179025 13.213193,28.056577 C13.217809,28.1757193 13.2237973,28.2946121 13.2314074,28.4131306 C13.2334035,28.4453177 13.2352749,28.4773801 13.2375205,28.5094425 C13.2589786,28.8154698 13.2900429,29.1188772 13.3304639,29.4194152 C13.3317115,29.4290214 13.3325848,29.4388772 13.3339571,29.4484835 L13.1625419,29.4484834 Z M12.259306,62.0040234 L12.259306,57.5740507 C12.259306,57.3310253 12.3370292,57.0923665 12.4781287,56.9021131 C13.9843119,54.8708304 16.295423,53.7058558 18.8186199,53.7058558 C21.168655,53.7058558 23.379462,54.7433294 24.8841481,56.5522963 C25.5528421,57.3561014 26.5321793,57.817076 27.5711501,57.817076 C28.6101209,57.817076 29.5894581,57.3561014 30.258152,56.5522963 C31.7628382,54.7433294 33.9736452,53.7058558 36.3236803,53.7058558 C38.8470019,53.7058558 41.1579883,54.8708304 42.6641715,56.9021131 C42.805271,57.0924912 42.8829942,57.3311501 42.8829942,57.5740507 L42.8829942,62.0040234 L12.259306,62.0040234 Z M33.5126706,44.9185185 L34.8606628,45.1894893 L43.7071345,47.7942768 C45.5883353,48.3481949 47.2035556,49.4710019 48.3782612,51.0413099 C49.5528421,52.6116179 50.1737544,54.4782222 50.1737544,56.4392671 L50.1737544,61.8863782 C50.1737544,61.9512515 50.1209825,62.0040234 50.0561092,62.0040234 L44.7544639,62.0040234 L44.7544639,57.5740507 C44.7544639,56.9324288 44.5459961,56.2980429 44.1674854,55.78754 C42.3320702,53.3123743 39.399922,51.8346355 36.3239298,51.8346355 C33.4163587,51.8346355 30.6812008,53.1180039 28.8198363,55.3555088 C28.5078207,55.7306511 28.0528343,55.945731 27.5713996,55.945731 C27.0899649,55.945731 26.6349786,55.7306511 26.322963,55.3555088 C24.4615984,53.1178791 21.7264405,51.8346355 18.8188694,51.8346355 C15.7428772,51.8346355 12.8106043,53.3123743 10.9753138,55.78754 C10.5968031,56.2980429 10.3883353,56.9324288 10.3883353,57.5740507 L10.3883353,62.0040234 L5.08644055,62.0040234 C5.02156725,62.0040234 4.96879532,61.9512515 4.96879532,61.8863782 L4.96879532,56.4392671 C4.96879532,54.4782222 5.5897076,52.6116179 6.7642885,51.0413099 C7.9388694,49.4710019 9.55408967,48.3480702 11.4352904,47.7942768 L20.2817622,45.1894893 L21.3776218,44.9691696 C22.7970994,44.6838519 23.827462,43.425809 23.827462,41.9778869 L23.827462,41.3713216 C23.8718752,41.3832982 23.9166628,41.3934035 23.9612008,41.4050058 C23.9891462,41.4122417 24.0172164,41.4191033 24.0452865,41.4262144 C24.3362183,41.4996959 24.629271,41.5640702 24.9243197,41.6190877 C24.98046,41.6295673 25.0366004,41.6400468 25.0929903,41.6499025 C25.1685926,41.6630019 25.2441949,41.6757271 25.319922,41.6875789 C25.3881637,41.698308 25.456655,41.7082885 25.5251462,41.7180195 C25.5925146,41.7276257 25.6597583,41.737731 25.7272515,41.7463392 C25.8558752,41.7629318 25.9851228,41.7777778 26.1148694,41.7908772 C26.1643977,41.7958674 26.2141754,41.7996101 26.2637037,41.8041014 C26.358269,41.8127096 26.4529591,41.820694 26.5480234,41.8274308 C26.6016686,41.8311735 26.6554386,41.8345419 26.7092086,41.8376608 C26.8060195,41.8433996 26.9032047,41.8481404 27.0006394,41.851883 C27.047423,41.8537544 27.0940819,41.8558752 27.1409903,41.8572476 C27.283961,41.8614893 27.4274308,41.8642339 27.5713996,41.8642339 C27.7086316,41.8642339 27.8452398,41.8618635 27.9815984,41.8579961 C28.0267602,41.8567485 28.071922,41.8545029 28.1170838,41.8528811 C28.2082807,41.8495127 28.2993528,41.8455205 28.3900507,41.8404055 C28.4439454,41.8374113 28.4977154,41.8337934 28.5514854,41.8301754 C28.6339493,41.8245614 28.7161637,41.8183236 28.7981287,41.8113372 C28.8545185,41.8065965 28.9107836,41.801731 28.9670487,41.7962417 C29.0481404,41.7883821 29.1288577,41.7793996 29.209575,41.7702924 C29.2648421,41.7640546 29.3201092,41.758191 29.3752515,41.7513294 C29.4736842,41.7389786 29.5716179,41.7250058 29.6694269,41.7106589 C29.7568811,41.697809 29.8440858,41.6838363 29.9312904,41.6693645 C30.001154,41.6577622 30.0710175,41.6464094 30.1406316,41.633809 C30.2127407,41.6208343 30.2844756,41.6064873 30.3563353,41.5923899 C30.4124756,41.5812865 30.4684912,41.570308 30.5243821,41.5585809 C30.6013567,41.5424873 30.6782066,41.5256452 30.7550565,41.5083041 C30.8019649,41.4976998 30.8487485,41.4865965 30.8955322,41.4754932 C30.951423,41.462269 31.0075634,41.4501676 31.0632047,41.4363197 L31.0632047,41.9271111 C31.0632047,42.0340273 31.0705653,42.1395712 31.0815439,42.244117 C31.1077427,42.4935049 31.1627602,42.7355322 31.246347,42.9652086 C31.2584483,42.9985185 31.2736686,43.0304561 31.2868928,43.0632671 C31.3061053,43.1106745 31.3239454,43.1587057 31.3455283,43.2049903 C31.3501442,43.2149708 31.355883,43.2242027 31.360499,43.2340585 C31.7640858,44.0809045 32.5479298,44.7246472 33.5126706,44.9185185 Z M40.0654971,27.8275244 C40.0648733,27.85023 40.0636257,27.8726862 40.0628772,27.8952671 C40.0600078,27.9840936 40.0567641,28.0730448 40.0520234,28.1618713 C40.0507758,28.1856998 40.0489045,28.2092788 40.0475322,28.2331072 C40.0424172,28.3205614 40.0368031,28.4080156 40.0298168,28.495345 C40.0278207,28.5201715 40.0253255,28.5447485 40.0232047,28.569575 C40.0158441,28.6550331 40.0079844,28.740616 39.9990019,28.8259493 C39.9960078,28.8538947 39.9925146,28.8818402 39.9893957,28.9097856 C39.9802885,28.9905029 39.9706823,29.0710955 39.9599532,29.1516881 C39.955462,29.1853723 39.9505965,29.2189318 39.9458558,29.252616 C39.9356257,29.3253489 39.9248967,29.3980819 39.9132943,29.4706901 C39.9066823,29.5124834 39.8995712,29.5542768 39.89246,29.5959454 C39.8819805,29.6578246 39.8711267,29.7195789 39.8596491,29.7812086 C39.8500429,29.8331072 39.8400624,29.8848811 39.8298324,29.9365302 C39.8202261,29.9853099 39.8101209,30.0339649 39.7998908,30.0826199 C39.78754,30.1410058 39.7749396,30.1991423 39.7618402,30.2572788 C39.7477427,30.3195322 39.7327719,30.3814113 39.7178012,30.4432904 C39.7014581,30.5107836 39.6849903,30.5782768 39.6675244,30.6453957 C39.6438207,30.7362183 39.6194932,30.8267914 39.5937934,30.9169903 C39.5763275,30.9781209 39.5577388,31.0386277 39.5393996,31.099384 C39.5230565,31.1534035 39.5067135,31.207423 39.4897466,31.2610682 C39.4715322,31.3187057 39.4528187,31.3759688 39.433731,31.433232 C39.4128967,31.4957349 39.3914386,31.5579883 39.3696062,31.620117 C39.3530136,31.6672749 39.3367953,31.7146823 39.3197037,31.7615906 C39.2799064,31.8705029 39.2391111,31.9789162 39.1963197,32.0864561 C39.1898324,32.102924 39.182846,32.1190175 39.1762339,32.1353606 C39.1356881,32.2362885 39.0938947,32.3367173 39.050729,32.4363977 C39.0418713,32.4569825 39.0327641,32.4774425 39.0236569,32.4980273 C38.9761248,32.606191 38.9274698,32.7138558 38.8768187,32.8205224 C38.8756959,32.8230175 38.8745731,32.8255127 38.8733255,32.8280078 C38.0276023,34.608655 36.7671891,36.1704795 35.2145965,37.3768733 C35.1886472,37.3970838 35.1624483,37.4170448 35.1362495,37.4370058 C35.0710019,37.4869084 35.0051306,37.5358129 34.938885,37.5844678 C34.9009591,37.6122885 34.8631579,37.6402339 34.8249825,37.6676803 C34.7729591,37.7049825 34.7201871,37.7412865 34.66754,37.7777154 C34.5614971,37.8511969 34.4544561,37.923306 34.3460429,37.9934191 C34.328577,38.0047719 34.3113606,38.0162495 34.2938947,38.0274776 C34.2171696,38.0766316 34.1398207,38.1249123 34.0619727,38.1723197 C34.0522417,38.178308 34.0425107,38.1841715 34.032655,38.1901598 C33.2660273,38.6550019 32.4457544,39.0398752 31.5834386,39.3329279 C31.4816374,39.3674854 31.379462,39.4009201 31.2769123,39.4327329 C31.2066745,39.4545653 31.1360624,39.4751501 31.0653255,39.4958596 C30.9826121,39.5199376 30.8995244,39.5431423 30.8163119,39.5654737 C30.7344717,39.5874308 30.6523821,39.6087641 30.5699181,39.6290994 C30.4733567,39.6529279 30.3765458,39.6757583 30.2794854,39.6972164 C30.2257154,39.709193 30.1719454,39.7212943 30.1178012,39.7325224 C29.9874308,39.7595945 29.8566862,39.7844211 29.7254425,39.8072515 C29.6784094,39.8154854 29.6311267,39.8230955 29.5839688,39.8307057 C29.4448655,39.8532865 29.3056374,39.8744951 29.1656608,39.8923353 C29.1415828,39.8954542 29.1173801,39.8978246 29.0933021,39.900694 C28.9586901,39.917037 28.8237037,39.9310097 28.6883431,39.9431111 C28.6542846,39.9461053 28.6202261,39.9494737 28.5860429,39.9522183 C28.4373333,39.9641949 28.2882495,39.9734269 28.1387914,39.9801637 C28.106729,39.9815361 28.0745419,39.9826589 28.0424795,39.9837817 C27.8855361,39.9896452 27.7284678,39.9935127 27.5709006,39.9935127 C27.401731,39.9935127 27.2330604,39.9891462 27.0647641,39.9824094 C27.0365692,39.9812865 27.0082495,39.980538 26.9800546,39.9791657 C26.8238596,39.9719298 26.6682885,39.9613255 26.5129669,39.9483509 C26.4730448,39.9449825 26.4331228,39.9414893 26.3933255,39.9377466 C26.2449903,39.9238986 26.097154,39.9076803 25.949692,39.8885926 C25.9044055,39.882729 25.8592437,39.8759922 25.8140819,39.8695049 C25.6901988,39.852039 25.5666901,39.8328265 25.4435556,39.8116179 C25.3786823,39.8003899 25.3139337,39.7886628 25.2494347,39.7764366 C25.1437661,39.7566004 25.038347,39.7351423 24.9333021,39.7125614 C24.8655595,39.6979649 24.7978168,39.6833684 24.7304483,39.6677739 C24.6176686,39.641575 24.5053879,39.6131306 24.3933567,39.5838129 C24.3197505,39.5644756 24.246269,39.5447641 24.1731618,39.5240546 C24.0647485,39.4934893 23.9568343,39.4613021 23.8491696,39.4277427 C23.7659571,39.4017934 23.6831189,39.3745965 23.600655,39.3469006 C23.5516257,39.3304327 23.5027212,39.3130916 23.4539415,39.296 C22.819306,39.0739337 22.207501,38.8028382 21.6240156,38.4858324 C21.6192749,38.4832125 21.6145341,38.4805926 21.6097934,38.4780975 C21.5274542,38.4331852 21.445614,38.3873996 21.3645224,38.3407407 C21.3335828,38.3229006 21.3028928,38.3044366 21.272078,38.286347 C21.2030877,38.2459259 21.1342222,38.2052554 21.0661053,38.163462 C20.9716647,38.1053255 20.877848,38.0464405 20.7850292,37.9860585 C20.7764211,37.9804444 20.7678129,37.9747057 20.7592047,37.9690916 C18.4872671,36.479501 16.7254581,34.2652008 15.8018869,31.7030799 C15.7971462,31.6898558 15.7925302,31.6765068 15.7877895,31.6631579 C15.7543548,31.5692164 15.7224172,31.4747758 15.6911033,31.379961 C15.6792515,31.3437817 15.6672749,31.3076023 15.6556725,31.2711735 C15.6319688,31.1970682 15.6096374,31.1224639 15.587306,31.0477349 C15.5743314,31.0039454 15.5607329,30.9604055 15.5481326,30.9163665 C15.5188148,30.8139415 15.4911189,30.7110175 15.4644211,30.6075945 C15.4498246,30.5508304 15.4363509,30.4935673 15.4225029,30.4364288 C15.4081559,30.3770448 15.393809,30.3177856 15.3803353,30.258152 C15.3671111,30.1998908 15.354386,30.1412554 15.3420351,30.0826199 C15.3318051,30.0339649 15.3216998,29.9853099 15.3120936,29.9365302 C15.3018635,29.8848811 15.291883,29.8331072 15.2822768,29.7812086 C15.270924,29.7195789 15.2599454,29.6578246 15.2494659,29.5959454 C15.2423548,29.5542768 15.2353684,29.5126082 15.2286316,29.4706901 C15.217154,29.3980819 15.2063002,29.3253489 15.1960702,29.252616 C15.1913294,29.2190565 15.1864639,29.1854971 15.1819727,29.1516881 C15.1712437,29.0712203 15.1616374,28.9905029 15.1525302,28.9097856 C15.1494113,28.8818402 15.1459181,28.8540195 15.142924,28.8259493 C15.1338168,28.740616 15.1259571,28.6551579 15.1187212,28.569575 C15.1166004,28.5448733 15.1141053,28.5201715 15.1121092,28.495345 C15.1051228,28.4080156 15.0995088,28.3205614 15.0943938,28.2331072 C15.0930214,28.2092788 15.0911501,28.1856998 15.0899025,28.1618713 C15.0851618,28.0730448 15.0819181,27.9842183 15.0790487,27.8952671 C15.0783002,27.8726862 15.0770526,27.8501053 15.0764288,27.8275244 C15.0734347,27.716616 15.0719376,27.6055828 15.0719376,27.4945497 L15.0719376,24.5922183 C15.0720624,24.5922183 15.0723119,24.5920936 15.0724366,24.5920936 C15.078924,24.5907212 15.0851618,24.5887251 15.0915244,24.5872281 C15.1346901,24.5772476 15.1774815,24.5660195 15.2198986,24.5536686 C15.2367407,24.5486784 15.2533333,24.5430643 15.2701754,24.5378246 C15.3021131,24.5277193 15.3338012,24.5169903 15.365115,24.5055127 C15.3830799,24.4989006 15.4007953,24.4921637 15.4185107,24.4850526 C15.4493255,24.4728265 15.4796413,24.4599766 15.5098324,24.4465029 C15.5260507,24.4392671 15.5423938,24.4322807 15.5583626,24.4246706 C15.5949162,24.4073294 15.6307212,24.3889903 15.6662768,24.3697778 C15.6750097,24.365037 15.6839922,24.3607953 15.6926004,24.3560546 C15.7361404,24.3318519 15.778807,24.3060273 15.8206004,24.2789552 C15.833076,24.2709708 15.8450526,24.2622378 15.8572788,24.2540039 C15.886846,24.2340429 15.9161637,24.2137076 15.9448577,24.1923743 C15.9594542,24.1815205 15.9736764,24.1704172 15.9880234,24.1591891 C16.0142222,24.138729 16.0400468,24.1176452 16.0653723,24.0960624 C16.0789708,24.08446 16.092694,24.0728577 16.1060429,24.0608811 C16.1334893,24.0363041 16.1603119,24.0108538 16.1866355,23.9850292 C16.1963665,23.975423 16.2064717,23.966191 16.216078,23.9563353 C16.251384,23.9204055 16.2855673,23.8833528 16.3185029,23.8449279 C16.325115,23.837193 16.3313528,23.8289591 16.3379649,23.8210994 C16.364039,23.7899103 16.3893645,23.7582222 16.4138168,23.7256608 C16.4241715,23.7119376 16.4340273,23.6977154 16.4440078,23.6836179 C16.4640936,23.6555478 16.4835556,23.6271033 16.5025185,23.5980351 C16.512499,23.5826901 16.5223548,23.5672203 16.531961,23.551501 C16.5506745,23.5211852 16.5683899,23.4902456 16.585731,23.458807 C16.5935906,23.4445848 16.6018246,23.4304873 16.6094347,23.4160156 C16.6335127,23.3701053 16.6565926,23.3234464 16.6776764,23.2756647 C16.6972632,23.2313762 16.7133567,23.1854659 16.7258324,23.1386823 L17.8566238,18.8944717 C17.8951735,18.7496296 17.958425,18.618386 18.0422612,18.5044834 C18.1821131,18.3146043 18.3798519,18.1732554 18.6178869,18.0984016 C18.7132008,18.06846 18.8095127,18.0508694 18.9048265,18.0455049 C19.1911423,18.0294113 19.4704717,18.1226043 19.6998986,18.3164756 C19.8615828,18.4530838 20.0285068,18.5911891 20.1979259,18.7297934 C20.2408421,18.7649747 20.2837583,18.8002807 20.326425,18.8350877 C20.4625341,18.9454971 20.6007641,19.0564055 20.7414893,19.1675634 C20.8331852,19.2401715 20.9242573,19.3112827 21.0153294,19.3820195 C21.0515088,19.4100897 21.0880624,19.4382846 21.1244912,19.4663548 C23.025154,20.9342378 24.7728655,22.0070175 26.3553996,22.7812554 C26.3632593,22.7851228 26.3712437,22.789115 26.3791033,22.7929825 C26.4901365,22.8471267 26.6000468,22.8993996 26.7094581,22.9506745 C26.7678441,22.9781209 26.8261053,23.005692 26.8847407,23.0326394 C26.9483665,23.0618324 27.0113684,23.0899025 27.0744951,23.1180975 C27.1785419,23.1648811 27.2828382,23.2111657 27.3876335,23.2563275 C27.4006082,23.2619415 27.4134581,23.2671813 27.4264327,23.2727953 C28.9836413,23.9398674 30.6120858,24.4184327 32.2574971,24.5826121 C32.2936764,24.58623 32.3298558,24.5899727 32.3655361,24.5933411 C32.4416374,24.6003275 32.517614,24.6070643 32.5938402,24.6126784 C32.7169747,24.6219103 32.837614,24.6291462 32.955384,24.6345107 C32.9893177,24.6360078 33.0233762,24.6370058 33.0573099,24.6382534 C33.2027758,24.6436179 33.3453723,24.6469864 33.4823548,24.6469864 L40.069115,24.6469864 L40.069115,27.4945497 L40.0699883,27.4945497 C40.0699883,27.6055828 40.0684912,27.7164912 40.0654971,27.8275244 Z M43.1912671,25.8581209 L43.1912671,28.2373489 C43.1912671,28.9052943 42.6478285,29.4486082 41.979883,29.4486082 L41.8083431,29.4486082 C41.8097154,29.4390019 41.8104639,29.4291462 41.8118363,29.41954 C41.8522573,29.1190019 41.8833216,28.8155945 41.9047797,28.5095673 C41.9070253,28.4775049 41.9088967,28.4453177 41.9108928,28.4132554 C41.9183782,28.2947368 41.9244912,28.1759688 41.9291072,28.0567018 C41.9306043,28.0179025 41.9323509,27.9792281 41.9334737,27.9405536 C41.9379649,27.7923431 41.9410838,27.643883 41.9410838,27.4946745 L41.9410838,24.6469864 L41.9810058,24.6469864 C42.648577,24.6474854 43.1912671,25.1905497 43.1912671,25.8581209 Z M42.1303392,19.7214815 C42.1320858,19.7298402 42.1339571,19.7380741 42.1355789,19.7464327 C42.1567875,19.8501053 42.176499,19.9544016 42.1955867,20.0588226 C42.206191,20.1172086 42.2160468,20.1757193 42.2259025,20.23423 C42.2477349,20.3626043 42.2678207,20.4914776 42.2862846,20.6209747 C42.3002573,20.7192827 42.3138558,20.8178402 42.3258324,20.9166472 C42.3340663,20.9841404 42.3418012,21.051883 42.3491618,21.1196257 C42.363384,21.2523665 42.3763587,21.385232 42.3872125,21.5185965 C42.3902066,21.5560234 42.3934503,21.5933255 42.3961949,21.6308772 C42.4072982,21.7833294 42.4157817,21.9361559 42.422269,22.0893567 C42.4242651,22.1348928 42.4258869,22.1804288 42.4275088,22.2260897 C42.4331228,22.394885 42.437115,22.5639298 42.437115,22.7335984 L42.437115,22.7758908 L41.979883,22.7757661 L41.0054113,22.7757661 L33.4832281,22.7757661 C28.608499,22.7757661 23.512078,19.0862222 20.9081637,16.8870175 C20.8462846,16.8347446 20.7821598,16.7862144 20.7171618,16.7395556 C20.6988226,16.7264561 20.6802339,16.713731 20.66177,16.7011306 C20.6094971,16.6653255 20.5563509,16.6312671 20.5024561,16.5990799 C20.4868616,16.5897232 20.4713918,16.5798674 20.4556725,16.5707602 C20.3876803,16.5318363 20.3185653,16.4956569 20.2482027,16.462347 C20.2323587,16.4548616 20.2162651,16.4482495 20.2004211,16.4411384 C20.1434074,16.4153138 20.0858947,16.3913606 20.0276335,16.3692788 C20.0065497,16.3612943 19.9855906,16.3533099 19.9643821,16.3458246 C19.8950175,16.3212476 19.8250292,16.2986667 19.7541676,16.2793294 C19.7498012,16.2780819 19.7455595,16.2765848 19.741193,16.275462 C19.6665887,16.255501 19.5909864,16.2392827 19.5151345,16.2251852 C19.4931774,16.2210682 19.4710955,16.217575 19.4488889,16.2139571 C19.3893801,16.2042261 19.3294971,16.1963665 19.2694893,16.1902534 C19.2500273,16.1882573 19.2305653,16.1857622 19.2111033,16.1841404 C19.1345029,16.1779025 19.057653,16.1744094 18.9805536,16.1740351 C18.9760624,16.1740351 18.9716959,16.1734113 18.9672047,16.1734113 C18.9502378,16.1734113 18.9331462,16.1750331 18.9161793,16.1754074 C18.8676491,16.1762807 18.8192437,16.1777778 18.7705887,16.1808967 C18.7442651,16.1826433 18.7180663,16.1851384 18.6917427,16.1875088 C18.6465809,16.1916257 18.6014191,16.1968655 18.5562573,16.2029786 C18.5299337,16.2065965 18.5036101,16.2103392 18.4772865,16.2147057 C18.4296296,16.2225653 18.3819727,16.2320468 18.3344405,16.242152 C18.3117349,16.2470175 18.2889045,16.2512593 18.2663236,16.2566238 C18.1965848,16.2732164 18.1270955,16.2918051 18.0579805,16.3135127 C17.0677895,16.6247797 16.3170058,17.4096218 16.049653,18.413037 L14.9429396,22.5667992 C14.8662144,22.6952982 14.7268616,22.7758908 14.5746589,22.7758908 L14.1372632,22.7758908 L13.1627914,22.7758908 L12.7055595,22.7758908 L12.7055595,22.7337232 C12.7055595,22.5640546 12.7095517,22.3950097 12.7151657,22.2262144 C12.7166628,22.1805536 12.7184094,22.1350175 12.7204055,22.0894815 C12.7268928,21.9362807 12.7353762,21.7834542 12.7464795,21.6310019 C12.7492242,21.5934503 12.7524678,21.5561481 12.755462,21.5187212 C12.766191,21.3853567 12.7791657,21.2524912 12.7935127,21.1197505 C12.8008733,21.0520078 12.8084834,20.9842651 12.8168421,20.9167719 C12.8288187,20.8179649 12.8424172,20.7195322 12.8563899,20.6210994 C12.8748538,20.4916023 12.8949396,20.362729 12.9167719,20.2343548 C12.9266277,20.1758441 12.9366082,20.1173333 12.9470877,20.0589474 C12.9661754,19.9545263 12.9858869,19.85023 13.0070955,19.7465575 C13.0088421,19.7381988 13.0107135,19.7299649 13.0123353,19.7216062 C14.2824795,13.573614 19.3608109,8.80130994 25.6622534,7.98989474 C25.6782222,7.98789864 25.694191,7.98590253 25.7101598,7.98390643 C25.8110877,7.97118129 25.9125146,7.9597037 26.0140663,7.94909942 C26.0410136,7.94635478 26.067961,7.94348538 26.0950331,7.9408655 C26.1861053,7.93188304 26.2775517,7.92377388 26.3689981,7.91641326 C26.4026823,7.91366862 26.4363665,7.91092398 26.4700507,7.90842885 C26.5560078,7.90206628 26.6422144,7.89682651 26.7284211,7.89196101 C26.7657232,7.88984016 26.8030253,7.88746979 26.8403275,7.8857232 C26.9274074,7.88148148 27.0148616,7.87848733 27.1023158,7.87574269 C27.1371228,7.87461988 27.1719298,7.87312281 27.2068616,7.87224951 C27.328,7.86938012 27.4495127,7.86763353 27.5713996,7.86763353 C27.6932865,7.86763353 27.8147992,7.86938012 27.9359376,7.87224951 C27.9708694,7.87312281 28.0055517,7.87474464 28.0404834,7.87574269 C28.1279376,7.87848733 28.2153918,7.88148148 28.3024717,7.8857232 C28.3397739,7.88759454 28.377076,7.88996491 28.4143782,7.89196101 C28.5007096,7.89682651 28.5869162,7.90206628 28.6727485,7.90842885 C28.7064327,7.91092398 28.740117,7.91366862 28.7738012,7.91641326 C28.8653723,7.92377388 28.956694,7.93175828 29.0477661,7.9408655 C29.0747135,7.94348538 29.1017856,7.94623002 29.1287329,7.94909942 C29.2302846,7.9597037 29.3317115,7.97130604 29.4326394,7.98390643 C29.4486082,7.98590253 29.464577,7.98777388 29.4805458,7.98989474 C35.7819883,8.80118519 40.8601949,13.5733645 42.1303392,19.7214815 Z" id="Shape"></path>
                    </g>
                </g>
            </g>
        </g>
    </g>
</svg>