<?xml version="1.0" encoding="UTF-8"?>
<svg width="36px" height="36px" viewBox="0 0 36 36" version="1.1" xmlns="http://www.w3.org/2000/svg" xmlns:xlink="http://www.w3.org/1999/xlink">
    <!-- Generator: Sketch 49 (51002) - http://www.bohemiancoding.com/sketch -->
    <title>ico_bathroom</title>
    <desc>Created with Sketch.</desc>
    <defs></defs>
    <g id="Page-1" stroke="none" stroke-width="1" fill="none" fill-rule="evenodd" stroke-linecap="round" stroke-linejoin="round">
        <g id="03_Rooms_List" transform="translate(-1018.000000, -1040.000000)" stroke="#1A2B48">
            <g id="list-rooms" transform="translate(134.000000, 640.000000)">
                <g id="room" transform="translate(0.000000, 120.000000)">
                    <g id="Amenities" transform="translate(601.000000, 280.000000)">
                        <g id="ico_bathroom" transform="translate(283.000000, 1.000000)">
                            <g id="bathroom-tub-towel">
                                <path d="M20.25,20.411 L34.479,20.411 C34.6859603,20.4106271 34.8838759,20.4957916 35.0258965,20.6463335 C35.1679172,20.7968753 35.241418,20.9994122 35.229,21.206 C34.8080965,28.3410137 28.8989177,33.9114917 21.7515,33.911 L14.2515,33.911 C7.10132006,33.9120996 1.19038821,28.337958 0.7725,21.2 C0.760082024,20.9934122 0.83358283,20.7908753 0.97560347,20.6403335 C1.11762411,20.4897916 1.31553966,20.4046271 1.5225,20.405 L9.75,20.405" id="Shape"></path>
                                <path d="M25.905,2.204 L27.255,0.854 C28.1390038,0.0679226766 29.4024126,-0.12527754 30.4809373,0.360690329 C31.559462,0.846658197 32.2517117,1.92105031 32.2485,3.104 L32.2485111,20.411" id="Shape"></path>
                                <path d="M25.905,7.232 C26.8190077,6.33732305 27.1819615,5.02062201 26.8554565,3.78399292 C26.5289516,2.54736383 25.5633221,1.58144622 24.3267905,1.2545723 C23.0902589,0.927698385 21.7734496,1.29025925 20.8785,2.204 L20.571,2.5115 C20.2782135,2.80437489 20.2782135,3.27912511 20.571,3.572 L24.537,7.5395 C24.6777064,7.68056255 24.8687591,7.75984068 25.068,7.75984068 C25.2672409,7.75984068 25.4582936,7.68056255 25.599,7.5395 L25.905,7.232 Z" id="Shape"></path>
                                <path d="M17.112,4.034 L14.388,5.2895" id="Shape"></path>
                                <path d="M23.8395,10.7825 L22.6605,13.541" id="Shape"></path>
                                <path d="M19.8165,8.1065 L17.6835,10.217" id="Shape"></path>
                                <path d="M20.25,18.911 C20.25,18.0825729 19.5784271,17.411 18.75,17.411 L11.25,17.411 C10.4215729,17.411 9.75,18.0825729 9.75,18.911 L9.75,27.161 C9.75,27.5752136 10.0857864,27.911 10.5,27.911 L19.5,27.911 C19.9142136,27.911 20.25,27.5752136 20.25,27.161 L20.25,18.911 Z" id="Shape"></path>
                            </g>
                        </g>
                    </g>
                </g>
            </g>
        </g>
    </g>
</svg>