<?xml version="1.0" encoding="UTF-8"?>
<svg width="28px" height="24px" viewBox="0 0 28 24" version="1.1" xmlns="http://www.w3.org/2000/svg" xmlns:xlink="http://www.w3.org/1999/xlink">
    <!-- Generator: Sketch 53.2 (72643) - https://sketchapp.com -->
    <title>Shape</title>
    <desc>Created with Sketch.</desc>
    <g id="Page-1" stroke="none" stroke-width="1" fill="none" fill-rule="evenodd">
        <g id="01_Home" transform="translate(-1107.000000, -1074.000000)" fill="#FFFFFF" fill-rule="nonzero">
            <g id="welcome" transform="translate(135.000000, 860.000000)">
                <g id="gallery" transform="translate(954.000000, 194.000000)">
                    <g transform="translate(18.000000, 20.000000)" id="Shape">
                        <path d="M24.9457778,2.11790476 L6.83422222,0.0613333333 C6.13130159,-0.0386031746 5.41911111,0.166603175 4.87714286,0.625269841 C4.3352381,1.04546032 3.98787302,1.66831746 3.9151746,2.35015873 L3.58349206,5.07022222 L2.55511111,5.07022222 C1.09555556,5.07022222 0.000888888889,6.36387302 0.000888888889,7.82342857 L0.000888888889,21.3904762 C-0.0358730159,22.7822857 1.06260317,23.9404444 2.45447619,23.9772063 C2.488,23.9780952 2.5215873,23.9782857 2.55511111,23.9778413 L20.7661587,23.9778413 C22.2257143,23.9778413 23.5525714,22.8500317 23.5525714,21.3904762 L23.5525714,20.859746 C24.0050794,20.7723175 24.4343492,20.5915556 24.8130794,20.3290159 C25.3505397,19.8765079 25.6946667,19.2356825 25.7750476,18.5377778 L27.3009524,5.07022222 C27.4565079,3.60730159 26.4066667,2.29130159 24.9457778,2.11790476 Z M22.2257143,21.3904762 C22.2257143,22.120254 21.4959365,22.6509841 20.7661587,22.6509841 L2.55511111,22.6509841 C1.89587302,22.6703492 1.34577778,22.151619 1.3264127,21.492381 C1.32539683,21.4584127 1.32584127,21.4244444 1.32774603,21.3904762 L1.32774603,18.9358095 L6.46933333,15.1542857 C7.08698413,14.6800635 7.95695238,14.7222222 8.52596825,15.2537778 L12.1416508,18.4382222 C12.6907302,18.8992381 13.3819048,19.1569524 14.0987937,19.168 C14.6593016,19.1748571 15.2106032,19.0255873 15.6910476,18.7367619 L22.2257778,14.9552381 L22.2257778,21.3904762 L22.2257143,21.3904762 Z M22.2257143,13.3961905 L14.9943492,17.6089524 C14.3733968,17.9768254 13.5874286,17.9102222 13.0372063,17.4431111 L9.38838095,14.2254603 C8.34260317,13.3268571 6.81409524,13.271746 5.70634921,14.0927619 L1.32774603,17.2772063 L1.32774603,7.82342857 C1.32774603,7.09365079 1.82533333,6.39707937 2.55511111,6.39707937 L20.7661587,6.39707937 C21.5458413,6.42939683 22.1754921,7.0447619 22.2257143,7.82342857 L22.2257143,13.3961905 L22.2257143,13.3961905 Z M25.9753651,4.89111111 C25.9749206,4.89549206 25.9745397,4.89993651 25.9740317,4.90431746 L24.4149841,18.371873 C24.4176508,18.7210794 24.2584127,19.0518095 23.983746,19.2674921 C23.8510476,19.4001905 23.5525079,19.4665397 23.5525079,19.5328889 L23.5525079,7.82342857 C23.500127,6.31225397 22.2777778,5.10444444 20.7660952,5.07022222 L4.91028571,5.07022222 L5.2088254,2.48285714 C5.2735873,2.14780952 5.4487619,1.84419048 5.7064127,1.62038095 C5.99733333,1.4192381 6.34907937,1.32546032 6.7015873,1.35498413 L24.78,3.4447619 C25.5093968,3.51403175 26.0446349,4.1615873 25.9753651,4.89111111 Z"></path>
                    </g>
                </g>
            </g>
        </g>
    </g>
</svg>