<?xml version="1.0" encoding="UTF-8"?>
<svg width="24px" height="24px" viewBox="0 0 24 24" version="1.1" xmlns="http://www.w3.org/2000/svg" xmlns:xlink="http://www.w3.org/1999/xlink">
    <!-- Generator: Sketch 49 (51002) - http://www.bohemiancoding.com/sketch -->
    <title>ico_grid</title>
    <desc>Created with Sketch.</desc>
    <defs></defs>
    <g id="Page-1" stroke="none" stroke-width="1" fill="none" fill-rule="evenodd" stroke-linecap="round" stroke-linejoin="round">
        <g id="03_Rooms_List" transform="translate(-1261.000000, -658.000000)" stroke="#1A2B48">
            <g id="list-rooms" transform="translate(134.000000, 640.000000)">
                <g id="filter" transform="translate(1.000000, 0.000000)">
                    <g id="Group" transform="translate(1126.000000, 18.000000)">
                        <g id="ico_grid">
                            <path d="M10.5,9.5 C10.5,10.0522847 10.0522847,10.5 9.5,10.5 L1.5,10.5 C0.94771525,10.5 0.5,10.0522847 0.5,9.5 L0.5,1.5 C0.5,0.94771525 0.94771525,0.5 1.5,0.5 L9.5,0.5 C10.0522847,0.5 10.5,0.94771525 10.5,1.5 L10.5,9.5 Z" id="Shape"></path>
                            <path d="M23.5,9.5 C23.5,10.0522847 23.0522847,10.5 22.5,10.5 L14.5,10.5 C13.9477153,10.5 13.5,10.0522847 13.5,9.5 L13.5,1.5 C13.5,0.94771525 13.9477153,0.5 14.5,0.5 L22.5,0.5 C23.0522847,0.5 23.5,0.94771525 23.5,1.5 L23.5,9.5 Z" id="Shape"></path>
                            <path d="M10.5,22.5 C10.5,23.0522847 10.0522847,23.5 9.5,23.5 L1.5,23.5 C0.94771525,23.5 0.5,23.0522847 0.5,22.5 L0.5,14.5 C0.5,13.9477153 0.94771525,13.5 1.5,13.5 L9.5,13.5 C10.0522847,13.5 10.5,13.9477153 10.5,14.5 L10.5,22.5 Z" id="Shape"></path>
                            <path d="M23.5,22.5 C23.5,23.0522847 23.0522847,23.5 22.5,23.5 L14.5,23.5 C13.9477153,23.5 13.5,23.0522847 13.5,22.5 L13.5,14.5 C13.5,13.9477153 13.9477153,13.5 14.5,13.5 L22.5,13.5 C23.0522847,13.5 23.5,13.9477153 23.5,14.5 L23.5,22.5 Z" id="Shape"></path>
                        </g>
                    </g>
                </g>
            </g>
        </g>
    </g>
</svg>