<?xml version="1.0" encoding="UTF-8"?>
<svg width="36px" height="36px" viewBox="0 0 36 36" version="1.1" xmlns="http://www.w3.org/2000/svg" xmlns:xlink="http://www.w3.org/1999/xlink">
    <!-- Generator: Sketch 49 (51002) - http://www.bohemiancoding.com/sketch -->
    <title>ico_bed</title>
    <desc>Created with Sketch.</desc>
    <defs></defs>
    <g id="Page-1" stroke="none" stroke-width="1" fill="none" fill-rule="evenodd" stroke-linecap="round" stroke-linejoin="round">
        <g id="03_Rooms_List" transform="translate(-734.000000, -1040.000000)" stroke="#1A2B48">
            <g id="list-rooms" transform="translate(134.000000, 640.000000)">
                <g id="room" transform="translate(0.000000, 120.000000)">
                    <g id="Amenities" transform="translate(601.000000, 280.000000)">
                        <g id="Group" transform="translate(0.000000, 1.000000)">
                            <g id="ico_bed">
                                <polyline id="Shape" points="24.531 6 28.5 6 34.5 24 0 24 6 6 9.999 6"></polyline>
                                <path d="M34.5,24 L34.5,30.75 C34.5,31.9926407 33.4926407,33 32.25,33 L2.25,33 C1.00735931,33 1.66533454e-16,31.9926407 0,30.75 L0,24" id="Shape"></path>
                                <path d="M4,12 L30.5005,12" id="Shape"></path>
                                <path d="M24.8724363,7.513 C24.9486605,7.74185498 24.9101598,7.99340409 24.768974,8.18898351 C24.6277883,8.38456293 24.4011512,8.50029936 24.1599363,8.5 L9.75093633,8.5 C9.50972142,8.50029936 9.2830844,8.38456293 9.14189865,8.18898351 C9.0007129,7.99340409 8.96221218,7.74185498 9.03843633,7.513 L10.2009363,4 L23.1609363,4 C23.4836158,4.00024501 23.7699697,4.20685477 23.8719363,4.513 L24.8724363,7.513 Z" id="Shape"></path>
                                <path d="M6,6 L6,2.25 C6,1.00735931 7.00735931,1.66533454e-16 8.25,0 L26.25,0 C27.4926407,1.66533454e-16 28.5,1.00735931 28.5,2.25 L28.5,6" id="Shape"></path>
                                <path d="M16,33 L16,34.5" id="Shape"></path>
                                <path d="M16,33 L16,34.5" id="Shape"></path>
                            </g>
                        </g>
                    </g>
                </g>
            </g>
        </g>
    </g>
</svg>