<?xml version="1.0" encoding="UTF-8"?>
<svg width="21px" height="24px" viewBox="0 0 21 24" version="1.1" xmlns="http://www.w3.org/2000/svg" xmlns:xlink="http://www.w3.org/1999/xlink">
    <!-- Generator: Sketch 53.2 (72643) - https://sketchapp.com -->
    <title>Shape</title>
    <desc>Created with Sketch.</desc>
    <g id="Page-1" stroke="none" stroke-width="1" fill="none" fill-rule="evenodd">
        <g id="01_Home" transform="translate(-710.000000, -1073.000000)" fill="#FFFFFF" fill-rule="nonzero">
            <g id="welcome" transform="translate(135.000000, 860.000000)">
                <g id="play-button" transform="translate(554.000000, 194.000000)">
                    <path d="M39.9113481,27.3589826 C39.5582261,27.1388775 39.0939223,27.2465458 38.8739426,27.5995422 C38.653963,27.9525386 38.7616313,28.4168425 39.1145022,28.6368222 C39.9356927,29.1489368 40.425847,30.032369 40.425847,31.0001289 C40.425847,31.9678888 39.9356927,32.851321 39.1145022,33.3634357 L26.7643954,41.0639783 C25.8931355,41.6072138 24.8370324,41.6339427 23.93942,41.1358827 C23.0416822,40.6376971 22.5057249,39.7272851 22.5057249,38.7006715 L22.5057249,23.2994608 C22.5057249,22.2728473 23.0416822,21.3624352 23.93942,20.8642497 C24.8370324,20.3661897 25.8931355,20.3929185 26.7643954,20.9361541 L33.9538273,25.4189453 C34.3068238,25.6387995 34.7711276,25.5312566 34.9912328,25.1783857 C35.2112124,24.8255147 35.1035441,24.3610854 34.7506732,24.1411057 L27.5612413,19.65844 C26.2190266,18.8215636 24.5920807,18.7800272 23.2087061,19.5476345 C21.825708,20.3151162 21,21.7176904 21,23.2994608 L21,38.7005461 C21,40.2823164 21.825708,41.6848906 23.2088316,42.4523724 C23.8676412,42.8179176 24.5815398,43 25.2939325,43 C26.0771002,43 26.8583856,42.7798949 27.5612413,42.3415669 L39.9113481,34.6410243 C41.1765134,33.8520841 41.9318229,32.4910463 41.9318229,31.0000034 C41.9318229,29.5089605 41.1765134,28.1479227 39.9113481,27.3589826 Z" id="Shape"></path>
                </g>
            </g>
        </g>
    </g>
</svg>