<?xml version="1.0" encoding="UTF-8"?>
<svg width="149px" height="46px" viewBox="0 0 149 46" version="1.1" xmlns="http://www.w3.org/2000/svg" xmlns:xlink="http://www.w3.org/1999/xlink">
    <!-- Generator: Sketch 49 (51002) - http://www.bohemiancoding.com/sketch -->
    <title>logo</title>
    <desc>Created with Sketch.</desc>
    <defs></defs>
    <g id="Page-1" stroke="none" stroke-width="1" fill="none" fill-rule="evenodd">
        <g id="03_Rooms_Detail" transform="translate(-60.000000, -27.000000)" fill="#FFFFFF">
            <g id="header">
                <g id="logo" transform="translate(60.000000, 25.000000)">
                    <g id="Group-5" transform="translate(56.000000, 0.000000)">
                        <text id="LUSTAY" font-family="PlayfairDisplay-Bold, Playfair Display" font-size="24" font-weight="bold">
                            <tspan x="0.5" y="26">LUSTAY</tspan>
                        </text>
                        <text id="Hotel-&amp;-Resort" font-family="Poppins-Medium, Poppins" font-size="12" font-weight="400">
                            <tspan x="2.7" y="44">Hotel &amp; Resort</tspan>
                        </text>
                    </g>
                    <g id="Group-4" transform="translate(0.000000, 2.000000)">
                        <path d="M34.9008828,42.6853047 C35.7496367,42.1710391 36.0209648,41.0662305 35.5067891,40.2173867 C34.9925234,39.3684531 33.8877148,39.0973047 33.0388711,39.6114805 C30.02075,41.4398906 26.5492773,42.40625 23,42.40625 C12.2993398,42.40625 3.59375,33.7006602 3.59375,23 C3.59375,12.2993398 12.2993398,3.59375 23,3.59375 C33.7006602,3.59375 42.40625,12.2993398 42.40625,23 C42.40625,26.8263555 41.2683789,30.5508281 39.1156328,33.7708281 C38.5639922,34.5958633 38.7857266,35.7118125 39.6106719,36.2632734 C40.4358867,36.8149141 41.5516563,36.5931797 42.1031172,35.7682344 C44.6525234,31.9550859 46,27.5398047 46,23 C46,16.8564844 43.6075508,11.0806992 39.2635156,6.73648437 C34.9193008,2.39244922 29.1435156,0 23,0 C16.8564844,0 11.0806992,2.39244922 6.73648438,6.73648438 C2.39244922,11.0806992 0,16.8564844 0,23 C0,29.1435156 2.39244922,34.9193008 6.73648438,39.2635156 C11.0806992,43.6075508 16.8564844,46 23,46 C27.2058555,46 31.3210586,44.8537734 34.9008828,42.6853047 Z" id="Shape" fill-rule="nonzero"></path>
                        <path d="M25.8896282,31.2971277 C26.3757362,31.2971277 26.7718183,31.4512751 27.0958904,31.7595745 C27.4319652,32.0792924 27.6,32.4560971 27.6,32.89 C27.6,33.3353214 27.4319652,33.7178353 27.0958904,34.0375532 C26.7718183,34.3458526 26.3757362,34.5 25.9076321,34.5 C23.8251691,34.5 22.0608031,33.8034821 20.5964775,32.4104255 C19.1321518,31.0173689 18.4,29.3388751 18.4,27.3748936 L18.4,11.9428723 C18.4,11.5089695 18.5620336,11.1321647 18.8861057,10.8124468 C19.2221804,10.5041474 19.6242638,10.35 20.0923679,10.35 C20.5484693,10.35 20.9445515,10.5041474 21.2806262,10.8124468 C21.6046983,11.1321647 21.7667319,11.5089695 21.7667319,11.9428723 L21.7667319,17.2524468 L24.4853229,17.2524468 C24.953427,17.2524468 25.3495091,17.4065942 25.6735812,17.7148936 C26.009656,18.023193 26.1776908,18.3999978 26.1776908,18.8453191 C26.1776908,19.2906405 26.009656,19.6674453 25.6735812,19.9757447 C25.3495091,20.2954626 24.953427,20.4553191 24.4853229,20.4553191 L21.7667319,20.4553191 L21.7667319,27.3748936 C21.7667319,28.4596508 22.1688153,29.3845352 22.9729941,30.1495745 C23.777173,30.9146138 24.7493746,31.2971277 25.8896282,31.2971277 Z" id="t" stroke="#FFFFFF" stroke-width="0.6"></path>
                    </g>
                </g>
            </g>
        </g>
    </g>
</svg>