<?xml version="1.0" encoding="UTF-8"?>
<svg width="18px" height="17px" viewBox="0 0 18 17" version="1.1" xmlns="http://www.w3.org/2000/svg" xmlns:xlink="http://www.w3.org/1999/xlink">
    <!-- Generator: Sketch 49 (51002) - http://www.bohemiancoding.com/sketch -->
    <title>phone-dial</title>
    <desc>Created with Sketch.</desc>
    <defs></defs>
    <g id="Page-1" stroke="none" stroke-width="1" fill="none" fill-rule="evenodd" stroke-linecap="round" stroke-linejoin="round">
        <g id="03_Rooms_Detail" transform="translate(-1002.000000, -41.000000)" stroke="#FFFFFF">
            <g id="header">
                <g id="phone" transform="translate(1002.000000, 39.000000)">
                    <g id="Group" transform="translate(0.000000, 3.000000)">
                        <g id="phone-dial">
                            <path d="M3.11636364,0.892363636 L3.10836364,0.892363636 C1.6100738,1.2252496 0.54439162,2.55463066 0.545454545,4.08945455 L0.545454545,4.73672727 C0.545454545,5.02605435 0.66038928,5.30353135 0.864974421,5.50811649 C1.06955956,5.71270163 1.34703656,5.82763636 1.63636364,5.82763636 L4.36363636,5.82763636 C4.96612882,5.82763636 5.45454545,5.33921973 5.45454545,4.73672727 C5.45454545,4.13423482 5.94296209,3.64581818 6.54545455,3.64581818 L10.9090909,3.64581818 C11.5115834,3.64581818 12,4.13423482 12,4.73672727 C12,5.33921973 12.4884166,5.82763636 13.0909091,5.82763636 L15.8181818,5.82763636 C16.4206743,5.82763636 16.9090909,5.33921973 16.9090909,4.73672727 L16.9090909,4.08945455 C16.9091307,2.55544772 15.8436736,1.22725449 14.3461818,0.894545455 L14.3381818,0.894545455 C10.6320843,0.176716209 6.82274004,0.175975572 3.11636364,0.892363636 Z" id="Shape"></path>
                            <path d="M4.63636364,8.55490909 C4.48574052,8.55490909 4.36363636,8.67701325 4.36363636,8.82763636 C4.36363636,8.97825948 4.48574052,9.10036364 4.63636364,9.10036364 C4.78698675,9.10036364 4.90909091,8.97825948 4.90909091,8.82763636 C4.90909091,8.67701325 4.78698675,8.55490909 4.63636364,8.55490909" id="Shape"></path>
                            <path d="M8.72727273,8.55490909 C8.57664961,8.55490909 8.45454545,8.67701325 8.45454545,8.82763636 C8.45454545,8.97825948 8.57664961,9.10036364 8.72727273,9.10036364 C8.87789584,9.10036364 9,8.97825948 9,8.82763636 C9,8.67701325 8.87789584,8.55490909 8.72727273,8.55490909" id="Shape"></path>
                            <path d="M12.8181818,8.55490909 C12.6675587,8.55490909 12.5454545,8.67701325 12.5454545,8.82763636 C12.5454545,8.97825948 12.6675587,9.10036364 12.8181818,9.10036364 C12.9688049,9.10036364 13.0909091,8.97825948 13.0909091,8.82763636 C13.0909091,8.67701325 12.9688049,8.55490909 12.8181818,8.55490909" id="Shape"></path>
                            <path d="M4.63636364,11.8276364 C4.48574052,11.8276364 4.36363636,11.9497405 4.36363636,12.1003636 C4.36363636,12.2509867 4.48574052,12.3730909 4.63636364,12.3730909 C4.78698675,12.3730909 4.90909091,12.2509867 4.90909091,12.1003636 C4.90909091,11.9497405 4.78698675,11.8276364 4.63636364,11.8276364" id="Shape"></path>
                            <path d="M8.72727273,11.8276364 C8.57664961,11.8276364 8.45454545,11.9497405 8.45454545,12.1003636 C8.45454545,12.2509867 8.57664961,12.3730909 8.72727273,12.3730909 C8.87789584,12.3730909 9,12.2509867 9,12.1003636 C9,11.9497405 8.87789584,11.8276364 8.72727273,11.8276364" id="Shape"></path>
                            <path d="M12.8181818,11.8276364 C12.6675587,11.8276364 12.5454545,11.9497405 12.5454545,12.1003636 C12.5454545,12.2509867 12.6675587,12.3730909 12.8181818,12.3730909 C12.9688049,12.3730909 13.0909091,12.2509867 13.0909091,12.1003636 C13.0909091,11.9497405 12.9688049,11.8276364 12.8181818,11.8276364" id="Shape"></path>
                            <path d="M4.63636364,15.1003636 C4.48574052,15.1003636 4.36363636,15.2224678 4.36363636,15.3730909 C4.36363636,15.523714 4.48574052,15.6458182 4.63636364,15.6458182 C4.78698675,15.6458182 4.90909091,15.523714 4.90909091,15.3730909 C4.90909091,15.2224678 4.78698675,15.1003636 4.63636364,15.1003636" id="Shape"></path>
                            <path d="M8.72727273,15.1003636 C8.57664961,15.1003636 8.45454545,15.2224678 8.45454545,15.3730909 C8.45454545,15.523714 8.57664961,15.6458182 8.72727273,15.6458182 C8.87789584,15.6458182 9,15.523714 9,15.3730909 C9,15.2224678 8.87789584,15.1003636 8.72727273,15.1003636" id="Shape"></path>
                            <path d="M12.8181818,15.1003636 C12.6675587,15.1003636 12.5454545,15.2224678 12.5454545,15.3730909 C12.5454545,15.523714 12.6675587,15.6458182 12.8181818,15.6458182 C12.9688049,15.6458182 13.0909091,15.523714 13.0909091,15.3730909 C13.0909091,15.2224678 12.9688049,15.1003636 12.8181818,15.1003636" id="Shape"></path>
                        </g>
                    </g>
                </g>
            </g>
        </g>
    </g>
</svg>