<?xml version="1.0" encoding="UTF-8"?>
<svg width="60px" height="57px" viewBox="0 0 60 57" version="1.1" xmlns="http://www.w3.org/2000/svg" xmlns:xlink="http://www.w3.org/1999/xlink">
    <!-- Generator: Sketch 49 (51002) - http://www.bohemiancoding.com/sketch -->
    <title>quote</title>
    <desc>Created with Sketch.</desc>
    <defs></defs>
    <g id="Page-1" stroke="none" stroke-width="1" fill="none" fill-rule="evenodd" opacity="0.05">
        <g id="02_About" transform="translate(-575.000000, -715.000000)" fill="#020202" fill-rule="nonzero">
            <g id="quote" transform="translate(605.000000, 743.500000) rotate(-180.000000) translate(-605.000000, -743.500000) translate(575.000000, 715.000000)">
                <path d="M13.7756406,26.2090618 L13.7756406,31.0045395 L25.7138041,31.0045395 L25.7138041,56.8094302 L0,56.8094302 L0,31.0045395 L0.000621504202,31.0045395 L0.000621504202,26.2090618 C0.000621504202,16.4712201 2.79241838,9.24042433 8.2989456,4.71626518 C12.1081449,1.58674583 16.9297744,0 22.630211,0 L22.630211,13.8235251 C19.5357416,13.8235251 13.7756406,13.8235251 13.7756406,26.2090618 Z M56.2793807,13.8235251 L56.2793807,0 C50.5792549,0 45.7576253,1.58674583 41.9484261,4.71626518 C36.4418989,9.24042433 33.6497912,16.471532 33.6497912,26.2090618 L33.6497912,31.0045395 L33.6497912,56.8094302 L59.3626631,56.8094302 L59.3626631,31.0045395 L47.4244996,31.0045395 L47.4244996,26.2090618 C47.4248104,13.8235251 53.1849113,13.8235251 56.2793807,13.8235251 Z" id="Shape"></path>
            </g>
        </g>
    </g>
</svg>