<?xml version="1.0" encoding="UTF-8"?>
<svg width="83px" height="64px" viewBox="0 0 83 64" version="1.1" xmlns="http://www.w3.org/2000/svg" xmlns:xlink="http://www.w3.org/1999/xlink">
    <!-- Generator: Sketch 49 (51002) - http://www.bohemiancoding.com/sketch -->
    <title>spa</title>
    <desc>Created with Sketch.</desc>
    <defs></defs>
    <g id="Page-1" stroke="none" stroke-width="1" fill="none" fill-rule="evenodd">
        <g id="01_Home" transform="translate(-288.000000, -2673.000000)" fill="#1A2B48" fill-rule="nonzero">
            <g id="services" transform="translate(135.000000, 2321.000000)">
                <g id="spa" transform="translate(0.000000, 292.000000)">
                    <g transform="translate(153.000000, 60.000000)" id="Shape">
                        <path d="M48.5620101,24.2613065 C47.4457085,23.2823317 46.0385126,22.4094874 44.3682412,21.6561206 C45.5668744,20.4148744 46.2409648,18.9951357 46.2409648,17.4752161 C46.2409648,13.6271759 41.878191,10.311397 35.2853869,9.05841206 C35.3276784,8.7080201 35.3505126,8.35328643 35.3505126,7.9958191 C35.3505126,4.81575879 33.6376281,1.84908543 30.8806432,0.253427136 C30.5062915,0.0366633166 30.0447839,0.0363417085 29.6699497,0.253427136 C28.0255678,1.20522613 26.7460503,2.63220101 25.982392,4.33817085 C24.2539095,3.68305528 22.3326231,3.56357789 20.4933467,4.05467337 C20.0752563,4.16594975 19.7488241,4.49254271 19.6373869,4.91063317 C19.1684824,6.66757789 19.2570854,8.49945729 19.8367839,10.1666734 C15.464201,11.8152362 12.8895678,14.4974472 12.8895678,17.4753769 C12.8895678,18.9956181 13.5638191,20.4156784 14.7629347,21.6570854 C10.2713568,23.6845025 7.73386935,26.5656281 7.73386935,29.7204422 C7.73386935,32.2613065 9.38645226,34.5813869 12.2267337,36.4201809 C9.06886432,37.2845025 6.38472362,38.382794 4.37306533,39.6447839 C0.758512563,41.9119598 0,44.2608241 0,45.832201 C0,52.2455477 11.5312563,56.1001809 22.959598,57.0754573 C22.9944925,57.0785126 23.0293869,57.079799 23.0636382,57.079799 C23.6845025,57.079799 24.2125829,56.6041407 24.2662915,55.9742714 C24.3232161,55.3093467 23.8300302,54.7243417 23.1651055,54.6675779 C9.68860302,53.5175075 2.41688442,49.257005 2.41688442,45.8323618 C2.41688442,42.8703518 7.46870352,39.8576884 15.2874774,38.1573467 C15.3519598,38.1433568 15.4132261,38.1232563 15.4725628,38.0997789 C18.6199799,39.4043819 22.561608,40.2712764 26.9851658,40.5230955 C27.0084824,40.5243819 27.031799,40.5250251 27.0549548,40.5250251 C27.6909347,40.5250251 28.2236784,40.0283015 28.2603417,39.3852462 C28.2981307,38.7190352 27.7887035,38.1480201 27.1223317,38.1100704 C22.3279598,37.8373467 17.9280402,36.7625327 14.7328643,35.0835779 C11.7779296,33.5306935 10.1504322,31.6259698 10.1504322,29.7202814 C10.1504322,27.3625729 12.6760201,25.0051859 16.928804,23.3702915 C19.9638191,25.2476784 24.462794,26.4173668 29.5651055,26.4173668 C34.6675779,26.4173668 39.1665528,25.2476784 42.2015678,23.3702915 C44.1574271,24.1225327 45.8051859,25.0582513 46.9684422,26.0782312 C47.497809,26.5426332 48.3333467,26.4451859 48.7453266,25.8764221 C49.1060101,25.3785729 49.0236784,24.6662111 48.5620101,24.2613065 Z M30.2745729,2.74170854 C31.9303719,3.9638191 32.9337889,5.91774874 32.9337889,7.9959799 C32.9337889,9.38066332 32.4857889,10.7082613 31.6986533,11.8028543 C31.4942714,9.77801005 30.6051859,7.84482412 29.129005,6.36880402 C28.8107739,6.05041206 28.4706734,5.76064322 28.1135276,5.49772864 C28.5684422,4.39863317 29.312804,3.44828141 30.2745729,2.74170854 Z M21.8252864,6.24225126 C23.8601005,5.93543719 25.9505528,6.6080804 27.4201407,8.07750754 C28.8895678,9.54677387 29.5617286,11.6373869 29.2552362,13.672201 C27.2207437,13.9791759 25.1299698,13.3063719 23.6603819,11.8369447 C22.1909548,10.3678392 21.518794,8.27706533 21.8252864,6.24225126 Z M39.9618894,21.8630754 C37.2050653,23.2414874 33.5128442,24.0006432 29.5652663,24.0006432 C25.6176884,24.0006432 21.9254673,23.2414874 19.1686432,21.8630754 C16.7139698,20.6358191 15.3062915,19.0364623 15.3062915,17.4753769 C15.3062915,15.5267538 17.4449849,13.5922814 20.9400603,12.3343116 C21.2383518,12.7636583 21.575397,13.1700101 21.9513568,13.5461307 C23.6455879,15.2405226 25.9413869,16.1614472 28.2870352,16.1614472 C28.7316583,16.1614472 29.1762814,16.1281608 29.6159196,16.0620704 C30.0259698,16.0003216 30.5186734,15.9487035 30.8824121,15.737407 C32.6110553,14.736402 33.9288442,13.1960603 34.6711156,11.4022915 C40.0162412,12.385608 43.8240804,14.8841809 43.8240804,17.4755377 C43.8242412,19.0364623 42.4165628,20.6358191 39.9618894,21.8630754 Z"></path>
                        <path d="M81.6477588,42.5087035 C78.5574271,41.0199799 75.2180101,40.3016683 71.8935477,40.3410653 C71.9287638,36.9812261 71.1866533,33.6300704 69.7241407,30.5940905 C69.5083417,30.1467337 69.0450653,29.8777085 68.5454472,29.913407 C65.1875377,30.1645829 61.9203216,31.1953367 59.0306734,32.9017889 C57.4031759,30.0106935 55.1149347,27.4846231 52.2867136,25.5569045 C51.8760201,25.2772663 51.3360402,25.2772663 50.9253467,25.5569045 C48.0935879,27.4870352 45.8032563,30.0172864 44.1752764,32.9128844 C41.2812864,31.1995176 38.0076382,30.1652261 34.6418492,29.913407 C34.145608,29.8767437 33.6786332,30.1464121 33.4631558,30.5940905 C32.0004824,33.6302312 31.2583719,36.9813869 31.2937487,40.3409045 C27.9692864,40.3015075 24.6298693,41.0198191 21.5395377,42.5087035 C21.0920201,42.7243417 20.8218693,43.1919598 20.8588543,43.687397 C21.398995,50.9044422 25.4576884,57.3703719 31.7165025,60.9839598 C35.0861508,62.9293668 38.8523417,63.9089849 42.6294673,63.9089849 C45.6784724,63.9088241 48.7348744,63.2696281 51.593809,61.9849648 C54.4530653,63.2699497 57.5086633,63.9089849 60.5581508,63.9089849 C64.3349548,63.9088241 68.1017889,62.9290452 71.4711156,60.9839598 C77.7299296,57.3703719 81.7886231,50.9044422 82.3287638,43.687397 C82.3652663,43.1919598 82.0952764,42.7243417 81.6477588,42.5087035 Z M67.8933869,32.4037789 C68.9902312,34.9571859 69.5318191,37.7300905 69.4755377,40.5039598 C66.8298291,40.8308744 64.2347739,41.6426131 61.8265729,42.9364422 C61.7426332,40.1968241 61.1449246,37.536804 60.1001809,35.0769849 C62.4715578,33.6450251 65.137206,32.7298894 67.8933869,32.4037789 Z M35.2937487,32.4037789 C38.057809,32.7306935 40.7302111,33.6500101 43.1065729,35.0887236 C42.0631156,37.5495075 41.4673367,40.2100101 41.385005,42.9501106 C38.9697286,41.6485628 36.3661508,40.832 33.711598,40.5039598 C33.6553166,37.7300905 34.1965829,34.9571859 35.2937487,32.4037789 Z M32.9246231,58.8910955 C27.6000804,55.817005 24.0659296,50.4213869 23.3489045,44.3394573 C28.9746332,41.9196784 35.4148342,42.2822915 40.7387337,45.3562211 C40.992804,45.5030352 41.2430151,45.6570854 41.4882412,45.8137085 C42.0619899,51.4748141 44.8257286,56.6885628 49.1941307,60.3473367 C43.8461106,62.2660503 37.8984523,61.7628945 32.9246231,58.8910955 Z M70.2623518,58.8910955 C65.2930251,61.76 59.351799,62.2647638 54.0082814,60.3526432 C55.8350151,58.8201809 57.4211859,56.9852462 58.6569648,54.9586332 C59.0043015,54.3887437 58.824201,53.6451859 58.2544724,53.2976884 C57.6844221,52.9505126 56.9411859,53.1304523 56.5935276,53.7001809 C55.305809,55.8118593 53.591799,57.6911759 51.6052261,59.1763618 C46.6971658,55.5143719 43.7912764,49.7554975 43.7912764,43.6079598 C43.7912764,37.4599397 46.697005,31.7013869 51.6055477,28.039397 C56.5142513,31.7013869 59.4198191,37.4597789 59.4198191,43.6079598 C59.4198191,45.8402412 59.0443417,48.0286231 58.304,50.1113568 C58.0803216,50.7401005 58.4088442,51.4310754 59.0379095,51.654593 C59.6661709,51.8784322 60.3574673,51.5497487 60.5811457,50.9206834 C61.1708141,49.2619899 61.5536884,47.5444422 61.7276784,45.7929648 C61.9632563,45.6430955 62.2052663,45.4961206 62.4479196,45.3562211 C67.7723015,42.2819698 74.2121809,41.9193568 79.8379095,44.3392965 C79.1210452,50.4212261 75.5868945,55.817005 70.2623518,58.8910955 Z"></path>
                    </g>
                </g>
            </g>
        </g>
    </g>
</svg>