<?xml version="1.0" encoding="UTF-8"?>
<svg width="64px" height="64px" viewBox="0 0 64 64" version="1.1" xmlns="http://www.w3.org/2000/svg" xmlns:xlink="http://www.w3.org/1999/xlink">
    <!-- Generator: Sketch 49 (51002) - http://www.bohemiancoding.com/sketch -->
    <title>tray</title>
    <desc>Created with Sketch.</desc>
    <defs></defs>
    <g id="Page-1" stroke="none" stroke-width="1" fill="none" fill-rule="evenodd">
        <g id="01_Home" transform="translate(-688.000000, -2673.000000)" fill="#1A2B48" fill-rule="nonzero">
            <g id="services" transform="translate(135.000000, 2321.000000)">
                <g id="bar" transform="translate(390.000000, 292.000000)">
                    <g id="tray" transform="translate(163.000000, 60.000000)">
                        <path d="M57.04425,41.7995 C56.982375,41.696 56.91725,41.596875 56.85225,41.509375 C56.205875,40.605875 55.24475,40.008625 54.14825,39.82825 C53.057,39.648 51.950875,39.905 51.050625,40.5515 L39.12525,49.06675 L26.666625,49.06675 C26.078875,49.06675 25.6,48.588875 25.6,48.000125 C25.6,47.411375 26.078875,46.9335 26.666625,46.9335 L33.6,46.9335 C35.658625,46.9335 37.333375,45.258875 37.333375,43.200125 C37.333375,43.188375 37.33225,43.09025 37.33125,43.079625 C37.265125,41.022 35.529625,39.41775 33.51475,39.466875 L19.6385,39.466875 C18.408625,39.4775 17.21075,39.918125 16.26675,40.70525 L11.05075,45.046625 C10.8075,45.250375 10.66675,45.550125 10.66675,45.866875 L10.66675,58.666875 C10.66675,59.25675 11.144625,59.7335 11.733375,59.7335 L38.1985,59.7335 C39.93075,59.731375 41.61825,59.12125 42.951625,58.01725 L55.882875,47.3325 C57.6395,46.081 58.149375,43.65125 57.04425,41.7995 Z M54.585625,45.641625 L41.5925,56.373375 C40.638875,57.16275 39.4325,57.597875 38.19725,57.6 L12.8,57.6 L12.8,46.366875 L17.633,42.343375 C18.2005,41.870875 18.918375,41.60625 19.648,41.599875 L33.54875,41.598875 C34.433,41.59775 35.171125,42.266625 35.2,43.2 C35.2,44.082125 34.482125,44.8 33.6,44.8 L26.666625,44.8 C24.902375,44.8 23.466625,46.23575 23.466625,48 C23.466625,49.76425 24.902375,51.2 26.666625,51.2 L39.466625,51.2 C39.6885,51.2 39.905,51.130625 40.0885,51.001625 L52.29325,42.285875 C52.73275,41.970125 53.267125,41.8475 53.802625,41.93275 C54.337,42.02125 54.80425,42.311375 55.12525,42.759375 C55.15725,42.803125 55.186,42.847875 55.21375,42.89375 C55.753625,43.797375 55.502875,44.9845 54.585625,45.641625 Z" id="Shape"></path>
                        <path d="M11.701375,43.733375 L0,43.733375 L0,45.86675 L10.634625,45.86675 L10.634625,61.86675 L0,61.86675 L0,64 L11.701375,64 C12.290125,64 12.768,63.52325 12.768,62.933375 L12.768,44.8 C12.768,44.210125 12.290125,43.733375 11.701375,43.733375 Z" id="Shape"></path>
                        <path d="M5.333375,53.333375 C3.569125,53.333375 2.133375,54.769125 2.133375,56.533375 C2.133375,58.297625 3.569125,59.733375 5.333375,59.733375 C7.097625,59.733375 8.533375,58.297625 8.533375,56.533375 C8.533375,54.769125 7.097625,53.333375 5.333375,53.333375 Z M5.333375,57.6 C4.745625,57.6 4.26675,57.122125 4.26675,56.533375 C4.26675,55.944625 4.745625,55.46675 5.333375,55.46675 C5.921125,55.46675 6.4,55.944625 6.4,56.533375 C6.4,57.122125 5.921125,57.6 5.333375,57.6 Z" id="Shape"></path>
                        <path d="M62.933375,33.066625 L1.066625,33.066625 C0.477875,33.066625 0,33.543375 0,34.13325 C0,38.2495 3.349375,41.599875 7.466625,41.599875 L56.53325,41.599875 C60.6495,41.599875 63.999875,38.2495 63.999875,34.13325 C64,33.5435 63.52325,33.066625 62.933375,33.066625 Z M56.533375,39.466625 L7.466625,39.466625 C4.890625,39.466625 2.736,37.630875 2.241,35.2 L61.758875,35.2 C61.264,37.630875 59.109375,39.466625 56.533375,39.466625 Z" id="Shape"></path>
                        <path d="M32,5.333375 C16.70825,5.333375 4.266625,17.775 4.266625,33.06675 L4.266625,34.133375 C4.266625,34.72325 4.7445,35.2 5.33325,35.2 L58.666625,35.2 C59.2565,35.2 59.73325,34.72325 59.73325,34.133375 L59.73325,33.06675 C59.733375,17.774875 47.29275,5.333375 32,5.333375 Z M6.4,33.066625 C6.4,18.951375 17.88475,7.466625 32,7.466625 C46.11525,7.466625 57.6,18.951375 57.6,33.066625 L6.4,33.066625 Z" id="Shape"></path>
                        <path d="M14.4555,17.50075 C13.709875,18.339125 13.01875,19.23625 12.401125,20.1685 L14.17925,21.347125 C14.7425,20.498 15.37175,19.679875 16.050125,18.91725 L14.4555,17.50075 Z" id="Shape"></path>
                        <path d="M32,9.6 C26.009625,9.60325 20.306125,11.866625 15.941375,15.970125 L17.40275,17.52425 C21.37075,13.793 26.55575,11.7365 32.001125,11.733375 L32,9.6 Z" id="Shape"></path>
                        <rect id="Rectangle-path" x="28.8" y="0" width="6.4" height="2.133375"></rect>
                        <rect id="Rectangle-path" x="30.933375" y="1.066625" width="2.133375" height="5.333375"></rect>
                    </g>
                </g>
            </g>
        </g>
    </g>
</svg>