<?xml version="1.0" encoding="UTF-8"?>
<svg width="18px" height="16px" viewBox="0 0 18 16" version="1.1" xmlns="http://www.w3.org/2000/svg" xmlns:xlink="http://www.w3.org/1999/xlink">
    <!-- Generator: Sketch 53.2 (72643) - https://sketchapp.com -->
    <title>Group</title>
    <desc>Created with Sketch.</desc>
    <g id="Page-1" stroke="none" stroke-width="1" fill="none" fill-rule="evenodd" stroke-linecap="round" stroke-linejoin="round">
        <g id="main" transform="translate(-32.000000, -275.000000)" stroke="#A0A9B2">
            <g id="left">
                <g id="menu" transform="translate(30.000000, 242.631579)">
                    <g id="1" transform="translate(3.000000, 28.923445)">
                        <g id="Group" transform="translate(0.000000, 4.000000)">
                            <g id="house-3">
                                <path d="M2.33333333,5.66666667 L2.33333333,14 C2.33333333,14.3681898 2.63181017,14.6666667 3,14.6666667 L13,14.6666667 C13.3681898,14.6666667 13.6666667,14.3681898 13.6666667,14 L13.6666667,5.66666667" id="Shape"></path>
                                <polyline id="Shape" points="0.333333333 7.66666667 8 0 15.6666667 7.66666667"></polyline>
                                <path d="M6.66666667,9.33333333 L9.33333333,9.33333333 C9.70152317,9.33333333 10,9.63181017 10,10 L10,14.6666667 L6,14.6666667 L6,10 C6,9.63181017 6.29847683,9.33333333 6.66666667,9.33333333 Z" id="Shape"></path>
                                <circle id="Oval" cx="8" cy="5.33333333" r="1.33333333"></circle>
                            </g>
                        </g>
                    </g>
                </g>
            </g>
        </g>
    </g>
</svg>