<?xml version="1.0" encoding="UTF-8"?>
<svg width="18px" height="14px" viewBox="0 0 18 14" version="1.1" xmlns="http://www.w3.org/2000/svg" xmlns:xlink="http://www.w3.org/1999/xlink">
    <!-- Generator: Sketch 53.2 (72643) - https://sketchapp.com -->
    <title>Group</title>
    <desc>Created with Sketch.</desc>
    <g id="Page-1" stroke="none" stroke-width="1" fill="none" fill-rule="evenodd" stroke-linecap="round" stroke-linejoin="round">
        <g id="add-hotel-step-1" transform="translate(-32.000000, -416.000000)" stroke="#A0A9B2">
            <g id="left">
                <g id="menu" transform="translate(30.000000, 86.631579)">
                    <g id="3" transform="translate(3.000000, 325.521531)">
                        <g id="Group" transform="translate(0.000000, 2.846890)">
                            <g id="car-4">
                                <path d="M3,6 L13,6 C14.4727593,6 15.6666667,7.19390733 15.6666667,8.66666667 L15.6666667,12 C15.6666667,12.3681898 15.3681898,12.6666667 15,12.6666667 L1,12.6666667 C0.631810167,12.6666667 0.333333333,12.3681898 0.333333333,12 L0.333333333,8.66666667 C0.333333333,7.19390733 1.52724067,6 3,6 Z" id="Shape"></path>
                                <path d="M2.66666667,6 L3.14733333,3.114 C3.25455375,2.47108348 3.81087079,1.99991988 4.46266667,2 L11.5373333,2 C12.1891292,1.99991988 12.7454462,2.47108348 12.8526667,3.114 L13.3333333,6" id="Shape"></path>
                                <path d="M13.3333333,6 L14.3333333,4.66666667 L15.3333333,4.66666667 C15.5174282,4.66666667 15.6666667,4.81590508 15.6666667,5 L15.6666667,5.66666667 C15.6666667,5.85076158 15.5174282,6 15.3333333,6 L13.3333333,6" id="Shape"></path>
                                <path d="M2.66666667,6 L1.66666667,4.66666667 L0.666666667,4.66666667 C0.48257175,4.66666667 0.333333333,4.81590508 0.333333333,5 L0.333333333,5.66666667 C0.333333333,5.85076158 0.48257175,6 0.666666667,6 L2.66666667,6" id="Shape"></path>
                                <path d="M3.66666667,12.6666667 L3.66666667,13.3333333 C3.66666667,13.7015232 3.36818983,14 3,14 L1.66666667,14 C1.29847683,14 1,13.7015232 1,13.3333333 L1,12.6666667" id="Shape"></path>
                                <path d="M15,12.6666667 L15,13.3333333 C15,13.7015232 14.7015232,14 14.3333333,14 L13,14 C12.6318102,14 12.3333333,13.7015232 12.3333333,13.3333333 L12.3333333,12.6666667" id="Shape"></path>
                                <path d="M15.5826667,8 L12.6666667,8 L12.3333333,9.33333333 L14.3333333,9.33333333 C14.8893833,9.33642479 15.4019323,9.03299574 15.6666667,8.544" id="Shape"></path>
                                <path d="M0.417333333,8 L3.33333333,8 L3.66666667,9.33333333 L1.66666667,9.33333333 C1.11025556,9.33776158 0.597069357,9.03395535 0.333333333,8.544" id="Shape"></path>
                                <path d="M3.33333333,8 L12.664,8" id="Shape"></path>
                                <path d="M12.3333333,9.33333333 L10.972,9.87666667 C10.7654127,9.95148803 10.548278,9.99311489 10.3286667,10 L5.33333333,10 C5.11497543,9.99168133 4.90032137,9.94096138 4.70133333,9.85066667 L3.66666667,9.33333333" id="Shape"></path>
                                <polyline id="Shape" points="3.33333333 12.6666667 4 11.3333333 12 11.3333333 12.6666667 12.6666667"></polyline>
                                <path d="M12,11.3333333 L14.3333333,11.3333333" id="Shape"></path>
                                <path d="M1.66666667,11.3333333 L4,11.3333333" id="Shape"></path>
                            </g>
                        </g>
                    </g>
                </g>
            </g>
        </g>
    </g>
</svg>