<?xml version="1.0" encoding="UTF-8"?>
<svg width="16px" height="16px" viewBox="0 0 16 16" version="1.1" xmlns="http://www.w3.org/2000/svg" xmlns:xlink="http://www.w3.org/1999/xlink">
    <!-- Generator: Sketch 53.2 (72643) - https://sketchapp.com -->
    <title>map</title>
    <desc>Created with Sketch.</desc>
    <g id="Page-1" stroke="none" stroke-width="1" fill="none" fill-rule="evenodd">
        <g id="add-hotel-step-1" transform="translate(-33.000000, -415.000000)" fill="#A0A9B2" fill-rule="nonzero">
            <g id="left">
                <g id="menu" transform="translate(30.000000, 86.631579)">
                    <g id="3" transform="translate(3.000000, 325.521531)">
                        <g id="map" transform="translate(0.000000, 2.846890)">
                            <path d="M15.6439209,1.31567124 L10.7904053,0.0149312812 C10.7198486,-0.00409620296 10.6461182,-0.00488899789 10.5750733,0.0124207357 L5.50512694,1.2444503 L0.574096687,0.0130814038 C0.434936531,-0.0218023171 0.288696281,0.0141384863 0.176879875,0.110465116 C0.0651855625,0.206659619 0,0.352801285 0,0.507531704 L0,14.1925211 C0,14.4289112 0.150878906,14.6341173 0.363769531,14.6869715 L5.38464356,15.9357822 C5.45288087,15.9528277 5.52368163,15.953092 5.59191894,15.9365751 L10.6723633,14.7063953 L15.4185791,15.9784619 C15.4558106,15.9885042 15.4936523,15.9932611 15.53125,15.9932611 C15.6348877,15.9932611 15.7368164,15.9561311 15.8201904,15.8854387 C15.9337158,15.7892442 16,15.6419133 16,15.4858615 L16,1.80827166 C16,1.57492073 15.8530273,1.37169661 15.6439209,1.31567124 Z M15.0625,14.8376057 L10.7904053,13.6926533 C10.7199707,13.6736258 10.6463623,13.672833 10.5754394,13.6900106 L5.49096681,14.9209831 L0.9375,13.7884514 L0.9375,1.14521671 L5.39831544,2.25924945 C5.46667481,2.27642706 5.53784181,2.27655919 5.60632325,2.25991016 L10.6724853,1.02880548 L15.0625,2.20533825 L15.0625,14.8376057 Z" id="Shape"></path>
                            <path d="M4.53125,5.21762686 C4.53125,4.9382928 4.32067872,4.71022728 4.0625,4.71022728 C3.80432128,4.71022728 3.59375,4.9382928 3.59375,5.21762686 C3.59375,5.49709301 3.80432128,5.72502644 4.0625,5.72502644 C4.32067872,5.72502644 4.53125,5.49709301 4.53125,5.21762686 Z" id="Path"></path>
                            <path d="M9.75,9.71656978 C9.75,10.0802061 9.85559081,10.5272199 10.0445557,10.9932611 L4.97558594,8.0886628 C5.21154784,7.83747356 5.40917969,7.54135834 5.54370119,7.31659619 C5.98596191,6.57809197 6.25,5.79334038 6.25,5.21762686 C6.25,3.9119979 5.26867675,2.84976216 4.0625,2.84976216 C2.85632325,2.84976216 1.875,3.9119979 1.875,5.21762686 C1.875,5.79334038 2.13903809,6.57809197 2.58129881,7.31659619 C2.81982422,7.71498415 3.25659181,8.33707718 3.75305175,8.53633722 C3.75305175,8.53633722 11.5576172,13.0060782 11.5791016,13.0142706 C11.6955566,13.0677854 11.8156738,13.0992336 11.9375,13.0992336 C12.5574951,13.0992336 13.1317139,12.294926 13.4188232,11.8155391 C13.8609619,11.0770349 14.125,10.2922833 14.125,9.71656978 C14.125,8.41094082 13.1436768,7.34870508 11.9375,7.34870508 C10.7313232,7.34870508 9.75,8.41094082 9.75,9.71656978 L9.75,9.71656978 Z M2.8125,5.21762686 C2.8125,4.4715909 3.373291,3.86456132 4.0625,3.86456132 C4.75183106,3.86456132 5.3125,4.4715909 5.3125,5.21762686 C5.3125,5.57108878 5.11230469,6.14785942 4.80249025,6.68723572 C4.4696045,7.26664903 4.17175294,7.53039114 4.0625,7.58020614 C3.953125,7.53039114 3.6553955,7.26664903 3.32250975,6.68723572 C3.01269531,6.14785942 2.8125,5.57108878 2.8125,5.21762686 Z M11.9375,8.36350424 C12.6268311,8.36350424 13.1875,8.97053382 13.1875,9.71656978 C13.1875,10.0700317 12.9873047,10.6468023 12.6774902,11.1860465 C12.3455811,11.7637421 12.0488281,12.0276163 11.9385986,12.0784884 L11.8830566,12.0467759 C11.7469482,11.952167 11.4854736,11.6875 11.1975097,11.1861786 C10.8876953,10.6468023 10.6875,10.0700317 10.6875,9.71656978 C10.6875,8.97053382 11.248291,8.36350424 11.9375,8.36350424 L11.9375,8.36350424 Z" id="Shape"></path>
                            <path d="M11.9375,10.2239694 C12.1956787,10.2239694 12.40625,9.99603592 12.40625,9.71656978 C12.40625,9.43710359 12.1956787,9.2091702 11.9375,9.2091702 C11.6793213,9.2091702 11.46875,9.43710359 11.46875,9.71656978 C11.46875,9.99603592 11.6793213,10.2239694 11.9375,10.2239694 Z" id="Path"></path>
                        </g>
                    </g>
                </g>
            </g>
        </g>
    </g>
</svg>