<?xml version="1.0" encoding="UTF-8"?>
<svg width="12px" height="16px" viewBox="0 0 12 16" version="1.1" xmlns="http://www.w3.org/2000/svg" xmlns:xlink="http://www.w3.org/1999/xlink">
    <!-- Generator: Sketch 53.2 (72643) - https://sketchapp.com -->
    <title>Group</title>
    <desc>Created with Sketch.</desc>
    <g id="Page-1" stroke="none" stroke-width="1" fill="none" fill-rule="evenodd" stroke-linecap="round" stroke-linejoin="round">
        <g id="main" transform="translate(-35.000000, -515.000000)" stroke="#A0A9B2">
            <g id="left">
                <g id="menu" transform="translate(30.000000, 242.631579)">
                    <g id="3" transform="translate(5.000000, 269.641148)">
                        <g id="Group" transform="translate(0.000000, 4.000000)">
                            <g id="cash-payment-bills">
                                <g>
                                    <path d="M0.502666667,7.33333333 L2.16933333,7.33333333 C2.25931702,7.32781633 2.34734514,7.36115975 2.4110927,7.4249073 C2.47484025,7.48865486 2.50818367,7.57668298 2.50266667,7.66666667 L2.50266667,13.6666667 C2.50818367,13.7566504 2.47484025,13.8446785 2.4110927,13.908426 C2.34734514,13.9721736 2.25931702,14.005517 2.16933333,14 L0.502666667,14" id="Shape"></path>
                                    <path d="M5.08533333,6.446 L3.836,8 C3.67278778,8.20272535 3.42944094,8.32439876 3.16933333,8.33333333 L2.50266667,8.33333333" id="Shape"></path>
                                    <path d="M2.50266667,12.3333333 C3.836,13.3333333 5.04866667,14 5.836,14 L9.836,14 C10.3206667,14 10.6253333,13.966 10.836,13.3333333 C11.1539978,11.792971 11.3766431,10.2344539 11.5026667,8.66666667 C11.5026667,8.33333333 11.1693333,8 10.5026667,8 L5.836,8" id="Shape"></path>
                                    <path d="M5.16933333,7 L4.22333333,0.380666667 C4.20960588,0.284974056 4.2380983,0.188035268 4.30142163,0.114989567 C4.36474497,0.0419438653 4.45666111,-1.28906212e-05 4.55333333,1.5173048e-15 L9.16933333,-2.96947178e-09" id="Shape"></path>
                                    <path d="M6.836,8 L6.206,1.7 C6.1965491,1.60597668 6.22744973,1.51236041 6.29101537,1.44243821 C6.35458101,1.37251601 6.44483741,1.33285954 6.53933333,1.33333333 L11.1173333,1.33333333 C11.21499,1.33225692 11.3082061,1.37406195 11.3723538,1.44770344 C11.4365014,1.52134493 11.4651267,1.61941378 11.4506667,1.716 L10.5026667,8" id="Shape"></path>
                                    <circle id="Oval" cx="8.66933333" cy="4.83333333" r="1"></circle>
                                </g>
                            </g>
                        </g>
                    </g>
                </g>
            </g>
        </g>
    </g>
</svg>