<?xml version="1.0" encoding="UTF-8"?>
<svg width="16px" height="16px" viewBox="0 0 16 16" version="1.1" xmlns="http://www.w3.org/2000/svg" xmlns:xlink="http://www.w3.org/1999/xlink">
    <!-- Generator: Sketch 53.2 (72643) - https://sketchapp.com -->
    <title>backpack</title>
    <desc>Created with Sketch.</desc>
    <g id="Page-1" stroke="none" stroke-width="1" fill="none" fill-rule="evenodd">
        <g id="add-hotel-step-1" transform="translate(-33.000000, -415.000000)" fill="#A0A9B2" fill-rule="nonzero">
            <g id="left">
                <g id="menu" transform="translate(30.000000, 86.631579)">
                    <g id="3" transform="translate(3.000000, 325.521531)">
                        <g id="backpack" transform="translate(0.000000, 2.846890)">
                            <path d="M14.125,9.3125 L13.625,9.3125 C13.625,8.90722656 13.625,4.94470216 13.625,4.25 C13.625,3.21606444 12.7839356,2.375 11.75,2.375 L10.1875,2.375 L10.1875,0.625 C10.1875,0.279785156 9.90771484,0 9.5625,0 L6.4375,0 C6.09228516,0 5.8125,0.279785156 5.8125,0.625 L5.8125,2.375 L4.25,2.375 C3.21606444,2.375 2.375,3.21606444 2.375,4.25 L2.375,9.3125 L1.875,9.3125 C0.841064438,9.3125 0,10.1535644 0,11.1875 L0,15.375 C0,15.7202148 0.279785156,16 0.625,16 L15.375,16 C15.7202148,16 16,15.7202148 16,15.375 L16,11.1875 C16,10.1535644 15.1589356,9.3125 14.125,9.3125 Z M2.375,14.75 L1.25,14.75 L1.25,11.1875 C1.25,10.8428955 1.5303955,10.5625 1.875,10.5625 L2.375,10.5625 L2.375,14.75 Z M7.0625,1.25 L8.9375,1.25 L8.9375,2.375 L7.0625,2.375 L7.0625,1.25 Z M9.71875,14.75 L6.28125,14.75 L6.28125,11.3125 L9.71875,11.3125 L9.71875,14.75 Z M12.375,14.75 L10.96875,14.75 L10.96875,10.6875 C10.96875,10.3422852 10.6889648,10.0625 10.34375,10.0625 L5.65625,10.0625 C5.31103516,10.0625 5.03125,10.3422852 5.03125,10.6875 L5.03125,14.75 L3.625,14.75 C3.625,14.5795898 3.625,8.78613281 3.625,8.625 L12.375,8.625 L12.375,14.75 Z M12.375,7.375 L3.625,7.375 L3.625,4.25 C3.625,3.9053955 3.9053955,3.625 4.25,3.625 L11.75,3.625 C12.0946045,3.625 12.375,3.9053955 12.375,4.25 L12.375,7.375 Z M14.75,14.75 L13.625,14.75 L13.625,10.5625 L14.125,10.5625 C14.4696045,10.5625 14.75,10.8428955 14.75,11.1875 L14.75,14.75 Z" id="Shape"></path>
                        </g>
                    </g>
                </g>
            </g>
        </g>
    </g>
</svg>