<?xml version="1.0" encoding="UTF-8"?>
<svg width="16px" height="16px" viewBox="0 0 16 16" version="1.1" xmlns="http://www.w3.org/2000/svg" xmlns:xlink="http://www.w3.org/1999/xlink">
    <!-- Generator: Sketch 53.2 (72643) - https://sketchapp.com -->
    <title>plane-outline</title>
    <desc>Created with Sketch.</desc>
    <g id="Page-1" stroke="none" stroke-width="1" fill="none" fill-rule="evenodd">
        <g id="add-hotel-step-1" transform="translate(-34.000000, -415.000000)" fill="#A0A9B2" fill-rule="nonzero">
            <g id="left">
                <g id="menu" transform="translate(30.000000, 86.631579)">
                    <g id="3" transform="translate(3.000000, 325.521531)">
                        <g id="plane-outline" transform="translate(1.000000, 2.846890)">
                            <path d="M15.5969412,0.404026144 C15.3261699,0.136575163 14.9896471,0.0136732026 14.5992941,0.0136732026 C14.1915294,0.0136732026 13.765281,0.141934641 13.3064314,0.395346405 C12.8542484,0.645045752 12.4475817,0.933228758 12.0918431,1.24564706 L12.0744575,1.24564706 C12.0050458,1.30635294 11.7881046,1.51458824 11.4151373,1.88755556 C11.0420131,2.26067974 10.7297255,2.57312418 10.4780131,2.84206536 L2.93858824,0.690352941 C2.75830065,0.638901961 2.60060131,0.690718954 2.47864052,0.81179085 L1.22057516,2.06115033 C1.10747712,2.1734902 1.06881046,2.30345098 1.09045752,2.46891503 C1.11213072,2.63328105 1.19448366,2.7467451 1.34219608,2.82465359 L7.32862745,5.98271895 L4.22258824,9.09746405 L1.71513725,9.18426144 C1.59369935,9.18854902 1.48933333,9.22721569 1.39419608,9.32311111 L0.15351634,10.5724706 C0.0407843137,10.6859346 -0.0201045752,10.8153203 0.0059869281,10.9976209 C0.0493071895,11.1797647 0.144810458,11.3011765 0.30972549,11.3532288 L3.37226144,12.6287059 L4.64773856,15.6913987 C4.71103268,15.8433464 4.82117647,15.9429281 5.00347712,15.9862745 L5.0900915,15.9862745 C5.22020915,15.9862745 5.33312418,15.9429281 5.42844444,15.8474248 L6.66912418,14.606719 C6.76462745,14.5114248 6.81275817,14.3984837 6.81665359,14.2858039 L6.90345098,11.7783529 L10.0095163,8.67228758 L13.1762614,14.6589542 C13.2543791,14.8064837 13.367634,14.8888366 13.532,14.9104837 C13.6974641,14.9323399 13.8266667,14.8760784 13.9397647,14.7629542 L15.1804444,13.5222484 C15.3105882,13.3921307 15.3620131,13.2425882 15.3105882,13.0624837 L13.1590588,5.52290196 L14.7206797,3.96109804 C14.9896209,3.69215686 15.2879739,3.32975163 15.5882092,2.78112418 C15.7392418,2.50551634 15.8504837,2.23508497 15.9265621,1.96559477 C16.0761569,1.43701961 16.0117386,0.813437908 15.5969412,0.404026144 Z M14.044,3.28444444 L12.2913464,5.04580392 C12.1442092,5.19369935 12.113281,5.33657516 12.1612288,5.50556863 L14.2955294,13.0451242 L13.7056471,13.6265098 L10.5473987,7.6572549 C10.4694902,7.50972549 10.3565752,7.4229281 10.2090719,7.40572549 C10.0443399,7.3709281 9.90551634,7.41422222 9.78389542,7.53584314 L6.08794771,11.2317908 C6.00985621,11.3098562 5.96653595,11.4140915 5.9404183,11.544183 L5.85362092,14.0514771 L5.25503268,14.6589542 L4.17058824,12.0820654 C4.13579085,11.9606275 4.05155556,11.8681046 3.91884967,11.8131242 L1.34216993,10.7458824 L1.94946405,10.1473203 L4.44823529,10.0517908 C4.59576471,10.0259085 4.69979085,9.98240523 4.76917647,9.91299346 L8.46512418,6.21701961 C8.58671895,6.0955817 8.63003922,5.95678431 8.59542484,5.79186928 C8.57801307,5.64433987 8.49121569,5.53163399 8.34368627,5.45351634 L2.37461438,2.28679739 L2.95581699,1.70541176 L10.4953987,3.83971242 C10.6643922,3.88763399 10.8078431,3.85712418 10.9551895,3.70959477 L11.7014641,2.96347712 L12.3868758,2.28677124 L12.6817255,1.99173856 L12.7165229,1.9743268 C13.4452288,1.34962092 14.156732,0.976679739 14.5992941,0.976679739 C14.7553464,0.976679739 14.8595294,1.01129412 14.9028497,1.08070588 C15.3974118,1.56658824 14.3512418,2.97571242 14.044,3.28444444 Z" id="Shape"></path>
                        </g>
                    </g>
                </g>
            </g>
        </g>
    </g>
</svg>