<?xml version="1.0" encoding="UTF-8"?>
<svg width="16px" height="17px" viewBox="0 0 16 17" version="1.1" xmlns="http://www.w3.org/2000/svg" xmlns:xlink="http://www.w3.org/1999/xlink">
    <!-- Generator: Sketch 53.2 (72643) - https://sketchapp.com -->
    <title>Group</title>
    <desc>Created with Sketch.</desc>
    <g id="Page-1" stroke="none" stroke-width="1" fill="none" fill-rule="evenodd" stroke-linecap="round" stroke-linejoin="round">
        <g id="main" transform="translate(-32.000000, -555.000000)" stroke="#A0A9B2">
            <g id="left">
                <g id="menu" transform="translate(30.000000, 242.631579)">
                    <g id="3" transform="translate(2.000000, 309.760766)">
                        <g id="Group" transform="translate(0.000000, 3.000000)">
                            <g id="alert-circle">
                                <g>
                                    <path d="M15.3333333,7.874 C15.3436193,11.9489316 12.0745155,15.2742045 8,15.3333333 C6.06848856,15.362395 4.20578372,14.6167332 2.82787181,13.2628721 C1.44995991,11.9090111 0.671617391,10.0597237 0.666666667,8.128 C0.655283325,4.05229017 3.92470332,0.72580393 8,0.666666667 C9.93180419,0.637782506 11.7947096,1.3837762 13.1726405,2.73803176 C14.5505714,4.09228732 15.3287361,5.94198535 15.3333333,7.874 Z" id="Shape"></path>
                                    <path d="M8,9.33666667 L8,4.67" id="Shape"></path>
                                    <path d="M7.994,10.67 C7.94996566,10.6706821 7.9080727,10.6891173 7.87782301,10.7211242 C7.84757332,10.7531312 7.83153052,10.7959973 7.83333333,10.84 C7.83655612,10.9309112 7.91103223,11.0030323 8.002,11.0033333 L8.002,11.0033333 C8.04597416,11.0024691 8.08775832,10.983978 8.11796888,10.9520124 C8.14817945,10.9200469 8.16428428,10.8772862 8.16266667,10.8333333 C8.15991263,10.7445493 8.08877203,10.6731171 8,10.67 L7.99666667,10.67" id="Shape"></path>
                                </g>
                            </g>
                        </g>
                    </g>
                </g>
            </g>
        </g>
    </g>
</svg>