<?xml version="1.0" encoding="UTF-8"?>
<svg width="18px" height="17px" viewBox="0 0 18 17" version="1.1" xmlns="http://www.w3.org/2000/svg" xmlns:xlink="http://www.w3.org/1999/xlink">
    <!-- Generator: Sketch 53.2 (72643) - https://sketchapp.com -->
    <title>Group</title>
    <desc>Created with Sketch.</desc>
    <g id="Page-1" stroke="none" stroke-width="1" fill="none" fill-rule="evenodd" stroke-linecap="round" stroke-linejoin="round">
        <g id="main" transform="translate(-33.000000, -314.000000)" stroke="#A0A9B2">
            <g id="left">
                <g id="menu" transform="translate(30.000000, 242.631579)">
                    <g id="2" transform="translate(4.000000, 69.043062)">
                        <g id="Group" transform="translate(0.000000, 3.000000)">
                            <g id="cog-1">
                                <path d="M13.2813333,4.80866667 C13.1294031,5.1280142 13.1199338,5.49679088 13.2552745,5.82351484 C13.3906152,6.15023879 13.6580851,6.40429738 13.9913333,6.52266667 L14.8346667,6.82266667 C15.3333535,6.99966663 15.6665566,7.47149985 15.6665566,8.00066667 C15.6665566,8.52983348 15.3333535,9.0016667 14.8346667,9.17866667 L13.9913333,9.47866667 C13.6580851,9.59703596 13.3906152,9.85109454 13.2552745,10.1778185 C13.1199338,10.5045425 13.1294031,10.8733191 13.2813333,11.1926667 L13.6666667,12 C13.8949609,12.4780108 13.7971638,13.0480142 13.422589,13.422589 C13.0480142,13.7971638 12.4780108,13.8949609 12,13.6666667 L11.1913333,13.2826667 C10.8719858,13.1307364 10.5032091,13.1212671 10.1764852,13.2566078 C9.84976121,13.3919486 9.59570262,13.6594185 9.47733333,13.9926667 L9.17733333,14.836 C9.00005874,15.3342016 8.52846825,15.666952 7.99966667,15.666952 C7.47086509,15.666952 6.99927459,15.3342016 6.822,14.836 L6.522,13.9926667 C6.40347983,13.659375 6.14929442,13.3919051 5.82246736,13.2565743 C5.4956403,13.1212435 5.12677651,13.1307245 4.80733333,13.2826667 L4,13.6666667 C3.52196442,13.8958614 2.95133064,13.7984003 2.57646518,13.4235348 C2.20159971,13.0486694 2.10413863,12.4780356 2.33333333,12 L2.71733333,11.1913333 C2.8692636,10.8719858 2.87873288,10.5032091 2.74339216,10.1764852 C2.60805143,9.84976121 2.34058154,9.59570262 2.00733333,9.47733333 L1.164,9.17733333 C0.665313192,9.00033337 0.332110033,8.52850015 0.332110033,7.99933333 C0.332110033,7.47016652 0.665313192,6.9983333 1.164,6.82133333 L2.00733333,6.52133333 C2.34022538,6.40291792 2.6074105,6.14908276 2.74271855,5.82269181 C2.87802659,5.49630085 2.86880346,5.12787839 2.71733333,4.80866667 L2.33333333,4 C2.10413863,3.52196442 2.20159971,2.95133064 2.57646518,2.57646518 C2.95133064,2.20159971 3.52196442,2.10413863 4,2.33333333 L4.80866667,2.71733333 C5.12779976,2.8688737 5.49615567,2.87829364 5.82261723,2.74326304 C6.14907879,2.60823244 6.40315604,2.34136252 6.522,2.00866667 L6.822,1.16533333 C6.99927459,0.667131738 7.47086509,0.334381328 7.99966667,0.334381328 C8.52846825,0.334381328 9.00005874,0.667131738 9.17733333,1.16533333 L9.47733333,2.00866667 C9.59570262,2.34191487 9.84976121,2.60938476 10.1764852,2.74472549 C10.5032091,2.88006622 10.8719858,2.87059693 11.1913333,2.71866667 L12,2.33333333 C12.4780108,2.1050391 13.0480142,2.20283623 13.422589,2.57741102 C13.7971638,2.9519858 13.8949609,3.52198924 13.6666667,4 L13.2813333,4.80866667 Z" id="Shape"></path>
                                <circle id="Oval" cx="7.99933333" cy="8.00066667" r="3"></circle>
                            </g>
                        </g>
                    </g>
                </g>
            </g>
        </g>
    </g>
</svg>