<?xml version="1.0" encoding="UTF-8"?>
<svg width="123px" height="31px" viewBox="0 0 123 31" version="1.1" xmlns="http://www.w3.org/2000/svg" xmlns:xlink="http://www.w3.org/1999/xlink">
    <!-- Generator: Sketch 53.2 (72643) - https://sketchapp.com -->
    <title>Group 4</title>
    <desc>Created with Sketch.</desc>
    <g id="Page-1" stroke="none" stroke-width="1" fill="none" fill-rule="evenodd">
        <g id="main" transform="translate(-30.000000, -30.000000)" fill="#FFFFFF">
            <g id="left">
                <g id="Group-4" transform="translate(30.000000, 30.000000)">
                    <path d="M23.5201602,28.7661836 C24.0921465,28.4196133 24.274998,27.6750684 23.9284883,27.1030215 C23.581918,26.5309141 22.837373,26.3481836 22.2653262,26.6946934 C20.231375,27.9268828 17.8919043,28.578125 15.5,28.578125 C8.28868555,28.578125 2.421875,22.7113145 2.421875,15.5 C2.421875,8.28868555 8.28868555,2.421875 15.5,2.421875 C22.7113145,2.421875 28.578125,8.28868555 28.578125,15.5 C28.578125,18.0786309 27.8112988,20.5886016 26.3605352,22.7586016 C25.9887773,23.3146035 26.138207,24.0666563 26.6941484,24.438293 C27.2502715,24.8100508 28.0022031,24.6606211 28.3738398,24.1046797 C30.091918,21.5349492 31,18.5594336 31,15.5 C31,11.3598047 29.3876973,7.46742773 26.4601953,4.53980469 C23.5325723,1.61230273 19.6401953,0 15.5,0 C11.3598047,0 7.46742773,1.61230273 4.53980469,4.53980469 C1.61230273,7.46742773 0,11.3598047 0,15.5 C0,19.6401953 1.61230273,23.5325723 4.53980469,26.4601953 C7.46742773,29.3876973 11.3598047,31 15.5,31 C18.3343809,31 21.1076699,30.227543 23.5201602,28.7661836 Z" id="Shape" fill-rule="nonzero"></path>
                    <path d="M17.8845401,20.8780142 C18.2015671,20.8780142 18.4598815,20.9801408 18.6712329,21.1843972 C18.8904121,21.3962186 19,21.6458614 19,21.9333333 C19,22.2283703 18.8904121,22.4817956 18.6712329,22.693617 C18.4598815,22.8978734 18.2015671,23 17.8962818,23 C16.5381537,23 15.3874803,22.5385389 14.4324853,21.6156028 C13.4774903,20.6926668 13,19.5806212 13,18.2794326 L13,8.05531915 C13,7.76784726 13.1056741,7.51820437 13.3170254,7.30638298 C13.5362046,7.10212664 13.7984329,7 14.1037182,7 C14.4011757,7 14.6594901,7.10212664 14.8786693,7.30638298 C15.0900206,7.51820437 15.1956947,7.76784726 15.1956947,8.05531915 L15.1956947,11.5730496 L16.9686888,11.5730496 C17.2739741,11.5730496 17.5322886,11.6751763 17.7436399,11.8794326 C17.9628191,12.083689 18.072407,12.3333319 18.072407,12.6283688 C18.072407,12.9234057 17.9628191,13.1730486 17.7436399,13.377305 C17.5322886,13.5891264 17.2739741,13.6950355 16.9686888,13.6950355 L15.1956947,13.6950355 L15.1956947,18.2794326 C15.1956947,18.9981123 15.457923,19.6108722 15.9823875,20.1177305 C16.5068519,20.6245888 17.1408965,20.8780142 17.8845401,20.8780142 Z" id="t" stroke="#FFFFFF" stroke-width="0.6"></path>
                    <path d="M49.0207778,9.2578125 L45.4832179,9.2578125 L45.4832179,23.6015625 L43.5596697,23.6015625 L43.5596697,9.2578125 L40,9.2578125 L40,7.3984375 L49.0207778,7.3984375 L49.0207778,9.2578125 Z M55.8305807,11.7148438 L54.8798615,13.2643229 C54.6292831,13.1315098 54.3860783,13.0651042 54.1502397,13.0651042 C53.6933026,13.0651042 53.2805914,13.2901453 52.9120938,13.7402344 C52.5435961,14.1903234 52.267227,14.7805953 52.0829782,15.5110677 C51.8987293,16.2415401 51.8066063,17.5585842 51.8066063,19.4622396 L51.8066063,23.6015625 L49.9493873,23.6015625 L49.9493873,11.5377604 L51.8066063,11.5377604 L51.8066063,12.84375 C52.175104,12.2977403 52.547281,11.8919284 52.9231486,11.6263021 C53.2990163,11.3606758 53.7264671,11.2278646 54.2055141,11.2278646 C54.6845611,11.2278646 55.2262445,11.3901893 55.8305807,11.7148438 Z M69.405967,23.6015625 L67.6150773,23.6015625 L67.6150773,21.8307292 C66.3032255,23.276917 64.7924078,24 63.0825786,24 C61.3727494,24 59.9098356,23.3691469 58.6937933,22.1074219 C57.477751,20.8456968 56.8697389,19.3405035 56.8697389,17.5917969 C56.8697389,15.8430902 57.4814359,14.3452753 58.7048482,13.0983073 C59.9282604,11.8513393 61.4206536,11.2278646 63.1820725,11.2278646 C64.9434913,11.2278646 66.4211448,11.9435692 67.6150773,13.375 L67.6150773,11.5377604 L69.405967,11.5377604 L69.405967,23.6015625 Z M63.2152371,22.2955729 C64.4386493,22.2955729 65.4925369,21.852869 66.3769313,20.9674479 C67.2613257,20.0820268 67.7035162,18.9789563 67.7035162,17.6582031 C67.7035162,16.33745 67.2686955,15.2306902 66.399041,14.3378906 C65.5293865,13.445091 64.4644442,12.9986979 63.2041822,12.9986979 C61.9439202,12.9986979 60.8789779,13.4598478 60.0093234,14.3821615 C59.1396689,15.3044751 58.7048482,16.3927889 58.7048482,17.6471354 C58.7048482,18.901482 59.1470387,19.9897957 60.0314331,20.9121094 C60.9158275,21.834423 61.9770849,22.2955729 63.2152371,22.2955729 Z M82.826585,11.5377604 L77.3212573,24 L76.8790623,24 L71.3295152,11.5377604 L73.2530634,11.5377604 L77.0780501,20.2591146 L80.9030368,11.5377604 L82.826585,11.5377604 Z M96.6230687,17.890625 L86.0546084,17.890625 C86.128308,19.2187566 86.5741834,20.2849352 87.3922483,21.0891927 C88.2103131,21.8934502 89.1868173,22.2955729 90.3217901,22.2955729 C92.2527179,22.2955729 93.7266864,21.3437595 94.74374,19.4401042 L96.2914225,20.2369792 C95.5986469,21.5208398 94.7805943,22.468964 93.8372403,23.0813802 C92.8938862,23.6937965 91.7663003,24 90.4544486,24 C88.6414401,24 87.145362,23.3765253 85.9661694,22.1295573 C84.7869769,20.8825893 84.1973895,19.3810852 84.1973895,17.625 C84.1973895,15.8689148 84.7906618,14.3637215 85.9772243,13.109375 C87.1637868,11.8550285 88.6340704,11.2278646 90.3881193,11.2278646 C92.1421682,11.2278646 93.608767,11.8218257 94.7879595,13.0097656 C95.9671521,14.1977056 96.578849,15.8246424 96.6230687,17.890625 Z M94.5889718,16.2747396 C94.3678732,15.2417483 93.8667238,14.4375029 93.0855088,13.8619792 C92.3042937,13.2864555 91.4051729,12.9986979 90.3881193,12.9986979 C88.3245324,12.9986979 86.9537416,14.0907009 86.2757059,16.2747396 L94.5889718,16.2747396 Z M100.713372,23.6015625 L98.9003729,23.6015625 L98.9003729,7 L100.713372,7 L100.713372,23.6015625 Z M115.416356,17.890625 L104.847896,17.890625 C104.921595,19.2187566 105.367471,20.2849352 106.185535,21.0891927 C107.0036,21.8934502 107.980104,22.2955729 109.115077,22.2955729 C111.046005,22.2955729 112.519974,21.3437595 113.537027,19.4401042 L115.08471,20.2369792 C114.391934,21.5208398 113.573881,22.468964 112.630527,23.0813802 C111.687173,23.6937965 110.559587,24 109.247736,24 C107.434727,24 105.938649,23.3765253 104.759457,22.1295573 C103.580264,20.8825893 102.990677,19.3810852 102.990677,17.625 C102.990677,15.8689148 103.583949,14.3637215 104.770511,13.109375 C105.957074,11.8550285 107.427358,11.2278646 109.181406,11.2278646 C110.935455,11.2278646 112.402054,11.8218257 113.581247,13.0097656 C114.760439,14.1977056 115.372136,15.8246424 115.416356,17.890625 Z M113.382259,16.2747396 C113.16116,15.2417483 112.660011,14.4375029 111.878796,13.8619792 C111.097581,13.2864555 110.19846,12.9986979 109.181406,12.9986979 C107.11782,12.9986979 105.747029,14.0907009 105.068993,16.2747396 L113.382259,16.2747396 Z M123,11.7148438 L122.049281,13.2643229 C121.798702,13.1315098 121.555498,13.0651042 121.319659,13.0651042 C120.862722,13.0651042 120.450011,13.2901453 120.081513,13.7402344 C119.713015,14.1903234 119.436646,14.7805953 119.252397,15.5110677 C119.068149,16.2415401 118.976026,17.5585842 118.976026,19.4622396 L118.976026,23.6015625 L117.118807,23.6015625 L117.118807,11.5377604 L118.976026,11.5377604 L118.976026,12.84375 C119.344523,12.2977403 119.7167,11.8919284 120.092568,11.6263021 C120.468436,11.3606758 120.895886,11.2278646 121.374933,11.2278646 C121.85398,11.2278646 122.395664,11.3901893 123,11.7148438 Z" id="Traveler"></path>
                </g>
            </g>
        </g>
    </g>
</svg>