<?xml version="1.0" encoding="UTF-8"?>
<svg width="163px" height="31px" viewBox="0 0 163 31" version="1.1" xmlns="http://www.w3.org/2000/svg" xmlns:xlink="http://www.w3.org/1999/xlink">
    <!-- Generator: Sketch 53.2 (72643) - https://sketchapp.com -->
    <title>Group 4</title>
    <desc>Created with Sketch.</desc>
    <g id="Page-1" stroke="none" stroke-width="1" fill="none" fill-rule="evenodd">
        <g id="main" transform="translate(-30.000000, -30.000000)" fill="#FFFFFF">
            <g id="left">
                <g id="Group-4" transform="translate(30.000000, 30.000000)">
                    <path d="M23.5201602,28.7661836 C24.0921465,28.4196133 24.274998,27.6750684 23.9284883,27.1030215 C23.581918,26.5309141 22.837373,26.3481836 22.2653262,26.6946934 C20.231375,27.9268828 17.8919043,28.578125 15.5,28.578125 C8.28868555,28.578125 2.421875,22.7113145 2.421875,15.5 C2.421875,8.28868555 8.28868555,2.421875 15.5,2.421875 C22.7113145,2.421875 28.578125,8.28868555 28.578125,15.5 C28.578125,18.0786309 27.8112988,20.5886016 26.3605352,22.7586016 C25.9887773,23.3146035 26.138207,24.0666563 26.6941484,24.438293 C27.2502715,24.8100508 28.0022031,24.6606211 28.3738398,24.1046797 C30.091918,21.5349492 31,18.5594336 31,15.5 C31,11.3598047 29.3876973,7.46742773 26.4601953,4.53980469 C23.5325723,1.61230273 19.6401953,0 15.5,0 C11.3598047,0 7.46742773,1.61230273 4.53980469,4.53980469 C1.61230273,7.46742773 0,11.3598047 0,15.5 C0,19.6401953 1.61230273,23.5325723 4.53980469,26.4601953 C7.46742773,29.3876973 11.3598047,31 15.5,31 C18.3343809,31 21.1076699,30.227543 23.5201602,28.7661836 Z" id="Shape" fill-rule="nonzero"></path>
                    <path d="M17.8845401,20.8780142 C18.2015671,20.8780142 18.4598815,20.9801408 18.6712329,21.1843972 C18.8904121,21.3962186 19,21.6458614 19,21.9333333 C19,22.2283703 18.8904121,22.4817956 18.6712329,22.693617 C18.4598815,22.8978734 18.2015671,23 17.8962818,23 C16.5381537,23 15.3874803,22.5385389 14.4324853,21.6156028 C13.4774903,20.6926668 13,19.5806212 13,18.2794326 L13,8.05531915 C13,7.76784726 13.1056741,7.51820437 13.3170254,7.30638298 C13.5362046,7.10212664 13.7984329,7 14.1037182,7 C14.4011757,7 14.6594901,7.10212664 14.8786693,7.30638298 C15.0900206,7.51820437 15.1956947,7.76784726 15.1956947,8.05531915 L15.1956947,11.5730496 L16.9686888,11.5730496 C17.2739741,11.5730496 17.5322886,11.6751763 17.7436399,11.8794326 C17.9628191,12.083689 18.072407,12.3333319 18.072407,12.6283688 C18.072407,12.9234057 17.9628191,13.1730486 17.7436399,13.377305 C17.5322886,13.5891264 17.2739741,13.6950355 16.9686888,13.6950355 L15.1956947,13.6950355 L15.1956947,18.2794326 C15.1956947,18.9981123 15.457923,19.6108722 15.9823875,20.1177305 C16.5068519,20.6245888 17.1408965,20.8780142 17.8845401,20.8780142 Z" id="t" stroke="#FFFFFF" stroke-width="0.6"></path>
                    <path d="M41.7,9.38 C41.7,9.2733328 41.733333,9.1833337 41.8,9.11 C41.866667,9.0366663 41.9533328,9 42.06,9 L46.8,9 C47.7600048,9 48.6666624,9.1833315 49.52,9.55 C50.3733376,9.9166685 51.1199968,10.4166635 51.76,11.05 C52.4000032,11.6833365 52.9033315,12.4233291 53.27,13.27 C53.6366685,14.1166709 53.82,15.0199952 53.82,15.98 C53.82,16.9533382 53.6366685,17.8666624 53.27,18.72 C52.9033315,19.5733376 52.4000032,20.3166635 51.76,20.95 C51.1199968,21.5833365 50.3733376,22.0833315 49.52,22.45 C48.6666624,22.8166685 47.7600048,23 46.8,23 L42.06,23 C41.9533328,23 41.866667,22.9633337 41.8,22.89 C41.733333,22.8166663 41.7,22.7266672 41.7,22.62 L41.7,9.38 Z M46.56,20.56 C47.2133366,20.56 47.8133306,20.4500011 48.36,20.23 C48.9066694,20.0099989 49.379998,19.700002 49.78,19.3 C50.180002,18.899998 50.4933322,18.4166695 50.72,17.85 C50.9466678,17.2833305 51.06,16.6600034 51.06,15.98 C51.06,15.2999966 50.9466678,14.6800028 50.72,14.12 C50.4933322,13.5599972 50.180002,13.080002 49.78,12.68 C49.379998,12.279998 48.9066694,11.9700011 48.36,11.75 C47.8133306,11.5299989 47.2133366,11.42 46.56,11.42 L44.28,11.42 L44.28,20.56 L46.56,20.56 Z M54.76,23 C54.6133326,23 54.5033337,22.9466672 54.43,22.84 C54.3566663,22.7333328 54.353333,22.613334 54.42,22.48 L60.64,9.02 C60.706667,8.8733326 60.8199992,8.8 60.98,8.8 L61.18,8.8 C61.2866672,8.8 61.3633331,8.8199998 61.41,8.86 C61.4566669,8.9000002 61.4933332,8.953333 61.52,9.02 L67.68,22.48 C67.746667,22.613334 67.7433337,22.7333328 67.67,22.84 C67.5966663,22.9466672 67.4866674,23 67.34,23 L65.6,23 C65.4533326,23 65.3366671,22.9700003 65.25,22.91 C65.1633329,22.8499997 65.086667,22.7466674 65.02,22.6 L64.04,20.44 L58.06,20.44 L57.08,22.6 C57.0399998,22.7066672 56.9733338,22.7999996 56.88,22.88 C56.7866662,22.9600004 56.6600008,23 56.5,23 L54.76,23 Z M63.06,18.22 L61.06,13.82 L61,13.82 L59.04,18.22 L63.06,18.22 Z M73.26,23.2 C72.6333302,23.2 72.0766691,23.1433339 71.59,23.03 C71.1033309,22.9166661 70.6833351,22.7766675 70.33,22.61 C69.9766649,22.4433325 69.6800012,22.2700009 69.44,22.09 C69.1999988,21.9099991 69.0066674,21.7600006 68.86,21.64 C68.7533328,21.5599996 68.6866668,21.4800004 68.66,21.4 C68.6333332,21.3199996 68.6666662,21.2000008 68.76,21.04 L69.48,19.8 C69.5600004,19.6533326 69.6699993,19.5766667 69.81,19.57 C69.9500007,19.5633333 70.0666662,19.593333 70.16,19.66 C70.5733354,19.9666682 71.0166643,20.2499987 71.49,20.51 C71.9633357,20.7700013 72.5266634,20.9 73.18,20.9 C73.7000026,20.9 74.1333316,20.7500015 74.48,20.45 C74.8266684,20.1499985 75,19.7866688 75,19.36 C75,18.8533308 74.7866688,18.4133352 74.36,18.04 C73.9333312,17.6666648 73.3000042,17.3066684 72.46,16.96 C71.993331,16.7733324 71.5333356,16.5533346 71.08,16.3 C70.6266644,16.0466654 70.2233351,15.7466684 69.87,15.4 C69.5166649,15.0533316 69.2333344,14.6533356 69.02,14.2 C68.8066656,13.7466644 68.7,13.2266696 68.7,12.64 C68.7,12.1999978 68.7866658,11.7500023 68.96,11.29 C69.1333342,10.8299977 69.3999982,10.4166685 69.76,10.05 C70.1200018,9.6833315 70.5833305,9.3833345 71.15,9.15 C71.7166695,8.9166655 72.399996,8.8 73.2,8.8 C73.7066692,8.8 74.1833311,8.8566661 74.63,8.97 C75.0766689,9.0833339 75.4733316,9.2133326 75.82,9.36 C76.1666684,9.5066674 76.4566655,9.6533326 76.69,9.8 C76.9233345,9.9466674 77.0933328,10.0599996 77.2,10.14 C77.3066672,10.206667 77.3699999,10.306666 77.39,10.44 C77.4100001,10.573334 77.386667,10.6933328 77.32,10.8 L76.56,11.94 C76.4799996,12.0600006 76.373334,12.1499997 76.24,12.21 C76.106666,12.2700003 75.9800006,12.2600004 75.86,12.18 C75.4333312,11.913332 75.0033355,11.6633345 74.57,11.43 C74.1366645,11.1966655 73.6400028,11.08 73.08,11.08 C72.5066638,11.08 72.0700015,11.2166653 71.77,11.49 C71.4699985,11.7633347 71.32,12.0933314 71.32,12.48 C71.32,12.946669 71.5099981,13.3533316 71.89,13.7 C72.2700019,14.0466684 72.8666626,14.386665 73.68,14.72 C74.1600024,14.920001 74.6499975,15.1466654 75.15,15.4 C75.6500025,15.6533346 76.099998,15.9566649 76.5,16.31 C76.900002,16.6633351 77.2266654,17.0799976 77.48,17.56 C77.7333346,18.0400024 77.86,18.5999968 77.86,19.24 C77.86,19.7600026 77.7533344,20.2566643 77.54,20.73 C77.3266656,21.2033357 77.020002,21.6233315 76.62,21.99 C76.219998,22.3566685 75.7366695,22.6499989 75.17,22.87 C74.6033305,23.0900011 73.9666702,23.2 73.26,23.2 Z M80.34,9.38 C80.34,9.2733328 80.3766663,9.1833337 80.45,9.11 C80.5233337,9.0366663 80.6133328,9 80.72,9 L82.58,9 C82.6866672,9 82.7766663,9.0366663 82.85,9.11 C82.9233337,9.1833337 82.96,9.2733328 82.96,9.38 L82.96,14.68 L89.48,14.68 L89.48,9.38 C89.48,9.2733328 89.5166663,9.1833337 89.59,9.11 C89.6633337,9.0366663 89.7533328,9 89.86,9 L91.7,9 C91.8066672,9 91.8966663,9.0366663 91.97,9.11 C92.0433337,9.1833337 92.08,9.2733328 92.08,9.38 L92.08,22.62 C92.08,22.7266672 92.0433337,22.8166663 91.97,22.89 C91.8966663,22.9633337 91.8066672,23 91.7,23 L89.86,23 C89.7533328,23 89.6633337,22.9633337 89.59,22.89 C89.5166663,22.8166663 89.48,22.7266672 89.48,22.62 L89.48,17.1 L82.96,17.1 L82.96,22.62 C82.96,22.7266672 82.9233337,22.8166663 82.85,22.89 C82.7766663,22.9633337 82.6866672,23 82.58,23 L80.72,23 C80.6133328,23 80.5233337,22.9633337 80.45,22.89 C80.3766663,22.8166663 80.34,22.7266672 80.34,22.62 L80.34,9.38 Z M102.66,15.92 C102.953335,16.0266672 103.243332,16.1633325 103.53,16.33 C103.816668,16.4966675 104.073332,16.7099987 104.3,16.97 C104.526668,17.2300013 104.709999,17.5399982 104.85,17.9 C104.990001,18.2600018 105.06,18.673331 105.06,19.14 C105.06,19.7000028 104.946668,20.2166643 104.72,20.69 C104.493332,21.1633357 104.183335,21.5699983 103.79,21.91 C103.396665,22.2500017 102.936669,22.5166657 102.41,22.71 C101.883331,22.9033343 101.313336,23 100.7,23 L95.86,23 C95.7533328,23 95.6633337,22.9633337 95.59,22.89 C95.5166663,22.8166663 95.48,22.7266672 95.48,22.62 L95.48,9.38 C95.48,9.2733328 95.5166663,9.1833337 95.59,9.11 C95.6633337,9.0366663 95.7533328,9 95.86,9 L100.44,9 C101.040003,9 101.596664,9.0933324 102.11,9.28 C102.623336,9.4666676 103.069998,9.726665 103.45,10.06 C103.830002,10.393335 104.126666,10.7866644 104.34,11.24 C104.553334,11.6933356 104.66,12.1799974 104.66,12.7 C104.66,13.4600038 104.456669,14.1033307 104.05,14.63 C103.643331,15.1566693 103.180003,15.553332 102.66,15.82 L102.66,15.92 Z M100.24,14.88 C100.746669,14.88 101.153332,14.7066684 101.46,14.36 C101.766668,14.0133316 101.92,13.5866692 101.92,13.08 C101.92,12.5733308 101.766668,12.1633349 101.46,11.85 C101.153332,11.5366651 100.746669,11.38 100.24,11.38 L98.06,11.38 L98.06,14.88 L100.24,14.88 Z M100.52,20.64 C101.026669,20.64 101.446665,20.4666684 101.78,20.12 C102.113335,19.7733316 102.28,19.3400026 102.28,18.82 C102.28,18.3133308 102.113335,17.8966683 101.78,17.57 C101.446665,17.2433317 101.026669,17.08 100.52,17.08 L98.06,17.08 L98.06,20.64 L100.52,20.64 Z M106.98,16.02 C106.98,15.019995 107.166665,14.0800044 107.54,13.2 C107.913335,12.3199956 108.42333,11.5566699 109.07,10.91 C109.71667,10.2633301 110.476662,9.7500019 111.35,9.37 C112.223338,8.9899981 113.159995,8.8 114.16,8.8 C115.160005,8.8 116.096662,8.9899981 116.97,9.37 C117.843338,9.7500019 118.606663,10.2633301 119.26,10.91 C119.913337,11.5566699 120.426665,12.3199956 120.8,13.2 C121.173335,14.0800044 121.36,15.019995 121.36,16.02 C121.36,17.020005 121.173335,17.9566623 120.8,18.83 C120.426665,19.7033377 119.913337,20.4633301 119.26,21.11 C118.606663,21.7566699 117.843338,22.2666648 116.97,22.64 C116.096662,23.0133352 115.160005,23.2 114.16,23.2 C113.159995,23.2 112.223338,23.0133352 111.35,22.64 C110.476662,22.2666648 109.71667,21.7566699 109.07,21.11 C108.42333,20.4633301 107.913335,19.7033377 107.54,18.83 C107.166665,17.9566623 106.98,17.020005 106.98,16.02 Z M109.58,16.02 C109.58,16.6466698 109.699999,17.2399972 109.94,17.8 C110.180001,18.3600028 110.506665,18.8466646 110.92,19.26 C111.333335,19.6733354 111.819997,19.9999988 112.38,20.24 C112.940003,20.4800012 113.53333,20.6 114.16,20.6 C114.78667,20.6 115.379997,20.4800012 115.94,20.24 C116.500003,19.9999988 116.989998,19.6733354 117.41,19.26 C117.830002,18.8466646 118.159999,18.3600028 118.4,17.8 C118.640001,17.2399972 118.76,16.6466698 118.76,16.02 C118.76,15.3933302 118.640001,14.8000028 118.4,14.24 C118.159999,13.6799972 117.830002,13.1900021 117.41,12.77 C116.989998,12.3499979 116.500003,12.0166679 115.94,11.77 C115.379997,11.5233321 114.78667,11.4 114.16,11.4 C113.53333,11.4 112.940003,11.5233321 112.38,11.77 C111.819997,12.0166679 111.333335,12.3499979 110.92,12.77 C110.506665,13.1900021 110.180001,13.6799972 109.94,14.24 C109.699999,14.8000028 109.58,15.3933302 109.58,16.02 Z M122.3,23 C122.153333,23 122.043334,22.9466672 121.97,22.84 C121.896666,22.7333328 121.893333,22.613334 121.96,22.48 L128.18,9.02 C128.246667,8.8733326 128.359999,8.8 128.52,8.8 L128.72,8.8 C128.826667,8.8 128.903333,8.8199998 128.95,8.86 C128.996667,8.9000002 129.033333,8.953333 129.06,9.02 L135.22,22.48 C135.286667,22.613334 135.283334,22.7333328 135.21,22.84 C135.136666,22.9466672 135.026667,23 134.88,23 L133.14,23 C132.993333,23 132.876667,22.9700003 132.79,22.91 C132.703333,22.8499997 132.626667,22.7466674 132.56,22.6 L131.58,20.44 L125.6,20.44 L124.62,22.6 C124.58,22.7066672 124.513334,22.7999996 124.42,22.88 C124.326666,22.9600004 124.200001,23 124.04,23 L122.3,23 Z M130.6,18.22 L128.6,13.82 L128.54,13.82 L126.58,18.22 L130.6,18.22 Z M136.98,9.38 C136.98,9.2733328 137.016666,9.1833337 137.09,9.11 C137.163334,9.0366663 137.253333,9 137.36,9 L143.08,9 C143.680003,9 144.243331,9.1133322 144.77,9.34 C145.296669,9.5666678 145.759998,9.8733314 146.16,10.26 C146.560002,10.6466686 146.873332,11.0999974 147.1,11.62 C147.326668,12.1400026 147.44,12.699997 147.44,13.3 C147.44,13.766669 147.366667,14.2033313 147.22,14.61 C147.073333,15.0166687 146.870001,15.3933316 146.61,15.74 C146.349999,16.0866684 146.040002,16.3966653 145.68,16.67 C145.319998,16.9433347 144.920002,17.1666658 144.48,17.34 L147.22,22.42 C147.286667,22.553334 147.29,22.6833327 147.23,22.81 C147.17,22.9366673 147.053334,23 146.88,23 L144.78,23 C144.686666,23 144.616667,22.9800002 144.57,22.94 C144.523333,22.8999998 144.486667,22.8600002 144.46,22.82 L141.8,17.52 L139.58,17.52 L139.58,22.62 C139.58,22.7266672 139.543334,22.8166663 139.47,22.89 C139.396666,22.9633337 139.306667,23 139.2,23 L137.36,23 C137.253333,23 137.163334,22.9633337 137.09,22.89 C137.016666,22.8166663 136.98,22.7266672 136.98,22.62 L136.98,9.38 Z M142.86,15.38 C143.126668,15.38 143.379999,15.3266672 143.62,15.22 C143.860001,15.1133328 144.069999,14.9666676 144.25,14.78 C144.430001,14.5933324 144.573333,14.3766679 144.68,14.13 C144.786667,13.8833321 144.84,13.6200014 144.84,13.34 C144.84,13.073332 144.786667,12.8233345 144.68,12.59 C144.573333,12.3566655 144.430001,12.1500009 144.25,11.97 C144.069999,11.7899991 143.860001,11.6500005 143.62,11.55 C143.379999,11.4499995 143.126668,11.4 142.86,11.4 L139.6,11.4 L139.6,15.38 L142.86,15.38 Z M150.18,9.38 C150.18,9.2733328 150.213333,9.1833337 150.28,9.11 C150.346667,9.0366663 150.433333,9 150.54,9 L155.28,9 C156.240005,9 157.146662,9.1833315 158,9.55 C158.853338,9.9166685 159.599997,10.4166635 160.24,11.05 C160.880003,11.6833365 161.383331,12.4233291 161.75,13.27 C162.116669,14.1166709 162.3,15.0199952 162.3,15.98 C162.3,16.9533382 162.116669,17.8666624 161.75,18.72 C161.383331,19.5733376 160.880003,20.3166635 160.24,20.95 C159.599997,21.5833365 158.853338,22.0833315 158,22.45 C157.146662,22.8166685 156.240005,23 155.28,23 L150.54,23 C150.433333,23 150.346667,22.9633337 150.28,22.89 C150.213333,22.8166663 150.18,22.7266672 150.18,22.62 L150.18,9.38 Z M155.04,20.56 C155.693337,20.56 156.293331,20.4500011 156.84,20.23 C157.386669,20.0099989 157.859998,19.700002 158.26,19.3 C158.660002,18.899998 158.973332,18.4166695 159.2,17.85 C159.426668,17.2833305 159.54,16.6600034 159.54,15.98 C159.54,15.2999966 159.426668,14.6800028 159.2,14.12 C158.973332,13.5599972 158.660002,13.080002 158.26,12.68 C157.859998,12.279998 157.386669,11.9700011 156.84,11.75 C156.293331,11.5299989 155.693337,11.42 155.04,11.42 L152.76,11.42 L152.76,20.56 L155.04,20.56 Z" id="DASHBOARD" fill-rule="nonzero"></path>
                </g>
            </g>
        </g>
    </g>
</svg>