<?xml version="1.0" encoding="UTF-8"?>
<svg width="31px" height="31px" viewBox="0 0 31 31" version="1.1" xmlns="http://www.w3.org/2000/svg" xmlns:xlink="http://www.w3.org/1999/xlink">
    <!-- Generator: Sketch 49 (51002) - http://www.bohemiancoding.com/sketch -->
    <title>ico_square_blue</title>
    <desc>Created with Sketch.</desc>
    <defs></defs>
    <g id="Hotel-layout" stroke="none" stroke-width="1" fill="none" fill-rule="evenodd" stroke-linecap="round" stroke-linejoin="round">
        <g id="Room_Detail_1" transform="translate(-145.000000, -803.000000)" stroke="#5191FA">
            <g id="room-detail" transform="translate(0.000000, 211.000000)">
                <g id="Group-3" transform="translate(135.000000, 562.000000)">
                    <g id="Group" transform="translate(9.000000, 30.000000)">
                        <g id="ico_square">
                            <g id="Group" transform="translate(1.000000, 0.000000)">
                                <g id="Regular">
                                    <path d="M3,29.76 L3,9.6" id="Shape"></path>
                                    <polyline id="Shape" points="0 26.88 3 29.76 6 26.88"></polyline>
                                    <polyline id="Shape" points="6 12.48 3 9.6 0 12.48"></polyline>
                                    <path d="M9,3.84 L30,3.84" id="Shape"></path>
                                    <polyline id="Shape" points="12 0.96 9 3.84 12 6.72"></polyline>
                                    <polyline id="Shape" points="27 6.72 30 3.84 27 0.96"></polyline>
                                    <path d="M12.6666667,19.2 L20.3333333,19.2 C20.7015232,19.2 21,19.4865378 21,19.84 L21,29.76 L12,29.76 L12,19.84 C12,19.4865378 12.2984768,19.2 12.6666667,19.2 Z" id="Shape"></path>
                                    <path d="M21,29.76 L28,29.76 L28,12.48 C28,11.9498066 27.5522847,11.52 27,11.52 L18,11.52 C17.4477153,11.52 17,11.9498066 17,12.48 L17,19.2" id="Shape"></path>
                                    <path d="M12,29.76 L10,29.76" id="Shape"></path>
                                    <path d="M30,29.76 L28,29.76" id="Shape"></path>
                                    <path d="M17,23.04 L21,23.04" id="Shape"></path>
                                    <path d="M25,15.36 L28,15.36" id="Shape"></path>
                                    <path d="M25,19.2 L28,19.2" id="Shape"></path>
                                </g>
                            </g>
                        </g>
                    </g>
                </g>
            </g>
        </g>
    </g>
</svg>