<?xml version="1.0" encoding="UTF-8"?>
<svg width="31px" height="26px" viewBox="0 0 31 26" version="1.1" xmlns="http://www.w3.org/2000/svg" xmlns:xlink="http://www.w3.org/1999/xlink">
    <!-- Generator: Sketch 49 (51002) - http://www.bohemiancoding.com/sketch -->
    <title>ico_beds_blue</title>
    <desc>Created with Sketch.</desc>
    <defs></defs>
    <g id="Hotel-layout" stroke="none" stroke-width="1" fill="none" fill-rule="evenodd" stroke-linecap="round" stroke-linejoin="round">
        <g id="Room_Detail_1" transform="translate(-345.000000, -806.000000)" stroke="#5191FA">
            <g id="room-detail" transform="translate(0.000000, 211.000000)">
                <g id="Group-3" transform="translate(135.000000, 562.000000)">
                    <g id="Group" transform="translate(210.000000, 30.000000)">
                        <g id="ico_beds">
                            <g id="Group" transform="translate(0.000000, 4.000000)">
                                <g id="hotel-double-bed-1">
                                    <path d="M3.84,11 L3.84,8 C3.84,6.8954305 4.69961328,6 5.76,6 L13.44,6 C14.5003867,6 15.36,6.8954305 15.36,8 L15.36,11" id="Shape"></path>
                                    <path d="M15.36,11 L15.36,8 C15.36,6.8954305 16.2196133,6 17.28,6 L24.96,6 C26.0203867,6 26.88,6.8954305 26.88,8 L26.88,11" id="Shape"></path>
                                    <path d="M3.52,11 L27.2,11 C28.613849,11 29.76,12.1939073 29.76,13.6666667 L29.76,20 L0.96,20 L0.96,13.6666667 C0.96,12.1939073 2.10615104,11 3.52,11 Z" id="Shape"></path>
                                    <path d="M0.96,20 L0.96,24" id="Shape"></path>
                                    <path d="M29.76,20 L29.76,24" id="Shape"></path>
                                    <path d="M26.88,11 L26.88,2 C26.88,0.8954305 26.0203867,0 24.96,0 L5.76,0 C4.69961328,0 3.84,0.8954305 3.84,2 L3.84,11" id="Shape"></path>
                                </g>
                            </g>
                        </g>
                    </g>
                </g>
            </g>
        </g>
    </g>
</svg>