<?xml version="1.0" encoding="UTF-8"?>
<svg width="34px" height="33px" viewBox="0 0 34 33" version="1.1" xmlns="http://www.w3.org/2000/svg" xmlns:xlink="http://www.w3.org/1999/xlink">
    <!-- Generator: Sketch 49 (51002) - http://www.bohemiancoding.com/sketch -->
    <title>ico_children_blue</title>
    <desc>Created with Sketch.</desc>
    <defs></defs>
    <g id="Hotel-layout" stroke="none" stroke-width="1" fill="none" fill-rule="evenodd" stroke-linecap="round" stroke-linejoin="round">
        <g id="Room_Detail_1" transform="translate(-744.000000, -803.000000)" stroke="#5191FA">
            <g id="room-detail" transform="translate(0.000000, 211.000000)">
                <g id="Group-3" transform="translate(135.000000, 562.000000)">
                    <g id="Group" transform="translate(610.000000, 30.000000)">
                        <g id="ico_children">
                            <g id="Group">
                                <g id="baby-boy">
                                    <path d="M11.2,16.7111111 C11.4945519,16.7111111 11.7333333,16.9498926 11.7333333,17.2444444" id="Shape"></path>
                                    <path d="M10.6666667,17.2444444 C10.6666667,16.9498926 10.9054481,16.7111111 11.2,16.7111111" id="Shape"></path>
                                    <path d="M11.2,17.7777778 C10.9054481,17.7777778 10.6666667,17.5389963 10.6666667,17.2444444" id="Shape"></path>
                                    <path d="M11.7333333,17.2444444 C11.7333333,17.5389963 11.4945519,17.7777778 11.2,17.7777778" id="Shape"></path>
                                    <path d="M20.8,16.7111111 C21.0945519,16.7111111 21.3333333,16.9498926 21.3333333,17.2444444" id="Shape"></path>
                                    <path d="M20.2666667,17.2444444 C20.2666667,16.9498926 20.5054481,16.7111111 20.8,16.7111111" id="Shape"></path>
                                    <path d="M20.8,17.7777778 C20.5054481,17.7777778 20.2666667,17.5389963 20.2666667,17.2444444" id="Shape"></path>
                                    <path d="M21.3333333,17.2444444 C21.3333333,17.5389963 21.0945519,17.7777778 20.8,17.7777778" id="Shape"></path>
                                    <path d="M28.2666667,15.1111111 L28.2467556,15.1111111 C26.6078633,9.71926878 21.6354176,6.03360737 16,6.03360737 C10.3645824,6.03360737 5.3921367,9.71926878 3.75324444,15.1111111 L3.73333333,15.1111111 C1.67147027,15.1111111 1.57898386e-16,16.7825814 0,18.8444444 C-1.57898386e-16,20.9063075 1.67147027,22.5777778 3.73333333,22.5777778 L3.75324444,22.5777778 C5.3921367,27.9696201 10.3645824,31.6552815 16,31.6552815 C21.6354176,31.6552815 26.6078633,27.9696201 28.2467556,22.5777778 L28.2666667,22.5777778 C30.3285297,22.5777778 32,20.9063075 32,18.8444444 C32,16.7825814 30.3285297,15.1111111 28.2666667,15.1111111 Z" id="Shape"></path>
                                    <path d="M20.7701333,24.1777778 C19.556005,25.5351216 17.8211233,26.310949 16,26.310949 C14.1788767,26.310949 12.443995,25.5351216 11.2298667,24.1777778" id="Shape"></path>
                                    <path d="M19.5384889,0.711111111 C21.9166026,2.28985975 22.9617267,5.25262923 22.1005114,7.97405904 C21.2392962,10.6954889 18.6799626,12.5176028 15.8265483,12.4407982 C12.973134,12.3639937 10.5155259,10.4068401 9.80195556,7.64302222" id="Shape"></path>
                                </g>
                            </g>
                        </g>
                    </g>
                </g>
            </g>
        </g>
    </g>
</svg>