<?xml version="1.0" encoding="UTF-8"?>
<svg width="32px" height="32px" viewBox="0 0 32 32" version="1.1" xmlns="http://www.w3.org/2000/svg" xmlns:xlink="http://www.w3.org/1999/xlink">
    <!-- Generator: Sketch 49 (51002) - http://www.bohemiancoding.com/sketch -->
    <title>ico_adults_blue</title>
    <desc>Created with Sketch.</desc>
    <defs></defs>
    <g id="Hotel-layout" stroke="none" stroke-width="1" fill="none" fill-rule="evenodd" stroke-linecap="round" stroke-linejoin="round">
        <g id="Room_Detail_1" transform="translate(-544.000000, -803.000000)" stroke="#5191FA">
            <g id="room-detail" transform="translate(0.000000, 211.000000)">
                <g id="Group-3" transform="translate(135.000000, 562.000000)">
                    <g id="Group" transform="translate(409.000000, 30.000000)">
                        <g id="ico_adults">
                            <g id="Group" transform="translate(1.000000, 1.000000)">
                                <g id="Regular">
                                    <circle id="Oval" cx="7" cy="4" r="4"></circle>
                                    <path d="M14,17 C14,13.1340068 10.8659932,10 7,10 C3.13400675,10 4.4408921e-16,13.1340068 0,17 L0,20 L3,20 L4,30 L10,30 L11,20 L14,20 L14,17 Z" id="Shape"></path>
                                    <path d="M16,24 L18,24 L19,30 L25,30 L26,24 L30,24 L27,15 C26,12 24.7613333,10 22,10 C20.1015957,10.0018584 18.4126862,11.2059289 17.792,13" id="Shape"></path>
                                    <circle id="Oval" cx="22" cy="4" r="4"></circle>
                                </g>
                            </g>
                        </g>
                    </g>
                </g>
            </g>
        </g>
    </g>
</svg>