<svg width="20" height="20" viewBox="0 0 20 20" fill="none" xmlns="http://www.w3.org/2000/svg">
<path d="M6.85794 17C5.86601 17 4.99732 16.2903 4.79303 15.3127L1.98099 1.86235C1.85773 1.27585 1.33686 0.85 0.741698 0.85H0.42259C0.18959 0.85 0.000488281 0.6596 0.000488281 0.425C0.000488281 0.1904 0.18959 0 0.42259 0H0.741698C1.73364 0 2.60232 0.70975 2.80662 1.68725L3.34269 4.25H18.7342C19.0727 4.25 19.3901 4.3826 19.6299 4.62315C19.8688 4.8637 20.0005 5.18415 20.0005 5.525C20.0005 5.63805 19.9853 5.7511 19.9557 5.86075L18.2226 12.2578C17.8739 13.5482 16.7013 14.45 15.3726 14.45H5.47514L5.61866 15.1377C5.74107 15.7242 6.26278 16.15 6.85794 16.15H16.4624C16.6954 16.15 16.8845 16.3404 16.8845 16.575C16.8845 16.8096 16.6954 17 16.4624 17H6.85794ZM15.3726 13.6C16.3215 13.6 17.1589 12.9557 17.4088 12.0343L19.1419 5.6372C19.1521 5.6015 19.1571 5.56325 19.1571 5.525C19.1571 5.41195 19.1132 5.30485 19.0339 5.22495C18.9528 5.1442 18.8473 5.1 18.7342 5.1H3.51997L5.29701 13.6H15.3726Z" fill="#1A2B48"/>
<path d="M6.50049 20C5.67324 20 5.00049 19.3273 5.00049 18.5C5.00049 17.6727 5.67324 17 6.50049 17C7.32774 17 8.00049 17.6727 8.00049 18.5C8.00049 19.3273 7.32774 20 6.50049 20ZM6.50049 17.75C6.08724 17.75 5.75049 18.086 5.75049 18.5C5.75049 18.914 6.08724 19.25 6.50049 19.25C6.91374 19.25 7.25049 18.914 7.25049 18.5C7.25049 18.086 6.91374 17.75 6.50049 17.75Z" fill="#1A2B48"/>
<path d="M14.5005 20C13.6732 20 13.0005 19.3273 13.0005 18.5C13.0005 17.6727 13.6732 17 14.5005 17C15.3277 17 16.0005 17.6727 16.0005 18.5C16.0005 19.3273 15.3277 20 14.5005 20ZM14.5005 17.75C14.0865 17.75 13.7505 18.086 13.7505 18.5C13.7505 18.914 14.0865 19.25 14.5005 19.25C14.9145 19.25 15.2505 18.914 15.2505 18.5C15.2505 18.086 14.9137 17.75 14.5005 17.75Z" fill="#1A2B48"/>
</svg>
