<?xml version="1.0" encoding="UTF-8"?>
<svg width="118px" height="60px" viewBox="0 0 118 60" version="1.1" xmlns="http://www.w3.org/2000/svg" xmlns:xlink="http://www.w3.org/1999/xlink">
    <!-- Generator: Sketch 49 (51002) - http://www.bohemiancoding.com/sketch -->
    <title>mail-send</title>
    <desc>Created with Sketch.</desc>
    <defs></defs>
    <g id="mail-send" stroke="none" stroke-width="1" fill="none" fill-rule="evenodd">
        <g fill="#A0A9B2" fill-rule="nonzero" id="Shape">
            <path d="M115.840227,59.8053409 C115.884545,59.7964773 115.927841,59.7845455 115.971477,59.7732955 C116.008636,59.76375 116.046136,59.7559091 116.082614,59.7446591 C116.125227,59.7317045 116.166818,59.7156818 116.208409,59.7006818 C116.245227,59.6873864 116.282386,59.6754545 116.318864,59.6601136 C116.358068,59.64375 116.395909,59.6246591 116.434091,59.6065909 C116.47125,59.5888636 116.509091,59.5725 116.545568,59.5527273 C116.582045,59.5332955 116.616477,59.5111364 116.651932,59.49 C116.688409,59.4681818 116.725227,59.4477273 116.760682,59.4238636 C116.798523,59.3986364 116.833636,59.3706818 116.870114,59.3434091 C116.900795,59.3205682 116.932159,59.2990909 116.962159,59.2745455 C117.017386,59.2292045 117.069886,59.1807955 117.121023,59.1310227 C117.130227,59.1221591 117.140114,59.1146591 117.149318,59.1054545 C117.158864,59.0959091 117.167045,59.0853409 117.17625,59.0754545 C117.225341,59.025 117.273068,58.9731818 117.318068,58.9186364 C117.344318,58.8865909 117.367159,58.8531818 117.391705,58.8201136 C117.416932,58.7860227 117.443523,58.7529545 117.467045,58.7175 C117.492273,58.6796591 117.514432,58.6404545 117.537614,58.6015909 C117.557045,58.5688636 117.577841,58.5368182 117.595909,58.5030682 C117.617045,58.4638636 117.634773,58.4232955 117.653523,58.3834091 C117.670227,58.3479545 117.687955,58.3128409 117.703295,58.2763636 C117.719659,58.2371591 117.732614,58.1972727 117.746932,58.1573864 C117.760909,58.1185227 117.775909,58.08 117.787841,58.0404545 C117.800114,58.0002273 117.808977,57.9593182 117.819205,57.9184091 C117.829091,57.8781818 117.840682,57.8386364 117.848523,57.7980682 C117.858068,57.75 117.863864,57.7015909 117.870682,57.6531818 C117.875455,57.6190909 117.881932,57.5853409 117.885341,57.5509091 C117.893864,57.4660227 117.898295,57.3811364 117.898295,57.2959091 L117.898295,2.64545455 C117.898295,1.23306818 116.753864,0.0886363636 115.341477,0.0886363636 L34.8017045,0.0886363636 C34.7792045,0.0886363636 34.7573864,0.0913636364 34.7348864,0.0920454545 C34.6861364,0.0934090909 34.6377273,0.0954545455 34.5893182,0.0995454545 C34.5507955,0.102613636 34.5126136,0.107045455 34.4744318,0.112159091 C34.4307955,0.117613636 34.3875,0.124090909 34.3442045,0.131931818 C34.3036364,0.139090909 34.2634091,0.147613636 34.2235227,0.156818182 C34.1829545,0.166363636 34.1423864,0.176590909 34.1021591,0.188181818 C34.0622727,0.199431818 34.0230682,0.211704545 33.9842045,0.224659091 C33.9443182,0.238295455 33.9044318,0.252613636 33.8652273,0.268295455 C33.8280682,0.282954545 33.7915909,0.297954545 33.7554545,0.314318182 C33.7152273,0.332386364 33.6753409,0.351818182 33.6357955,0.371931818 C33.6020455,0.389318182 33.5689773,0.407045455 33.53625,0.425795455 C33.4967045,0.448295455 33.4578409,0.472159091 33.4193182,0.496704545 C33.3876136,0.517159091 33.3565909,0.538295455 33.3259091,0.559772727 C33.2897727,0.585340909 33.2539773,0.611931818 33.2188636,0.639886364 C33.1868182,0.665454545 33.1554545,0.691704545 33.1244318,0.718636364 C33.09375,0.745568182 33.0634091,0.7725 33.03375,0.801136364 C33,0.833522727 32.9676136,0.867272727 32.9355682,0.901363636 C32.9195455,0.918409091 32.9025,0.933409091 32.8871591,0.950795455 C32.8779545,0.961022727 32.8707955,0.972272727 32.8619318,0.9825 C32.8298864,1.01965909 32.7998864,1.05852273 32.7698864,1.09772727 C32.7480682,1.12636364 32.7255682,1.155 32.7051136,1.18431818 C32.6785227,1.2225 32.6539773,1.26170455 32.6294318,1.30125 C32.6093182,1.33363636 32.5885227,1.36568182 32.5701136,1.39875 C32.5486364,1.43693182 32.5298864,1.47613636 32.5104545,1.51534091 C32.4927273,1.55113636 32.4743182,1.58693182 32.4582955,1.62340909 C32.4415909,1.66193182 32.4269318,1.70181818 32.4122727,1.74102273 C32.3976136,1.77954545 32.3826136,1.81772727 32.37,1.85659091 C32.3573864,1.89579545 32.3471591,1.93568182 32.33625,1.97556818 C32.3253409,2.01647727 32.31375,2.05704545 32.3045455,2.09829545 C32.2960227,2.13681818 32.2902273,2.17602273 32.2834091,2.21488636 C32.2759091,2.25920455 32.2684091,2.30352273 32.2629545,2.34784091 C32.2585227,2.38465909 32.2564773,2.42215909 32.25375,2.45965909 C32.2503409,2.50738636 32.2472727,2.55511364 32.2465909,2.60318182 C32.24625,2.61715909 32.2445455,2.63079545 32.2445455,2.64477273 L32.2445455,18.4125 C32.2445455,19.8248864 33.3889773,20.9693182 34.8013636,20.9693182 C36.21375,20.9693182 37.3581818,19.8248864 37.3581818,18.4125 L37.3581818,8.32329545 L60.0903409,28.4495455 C59.9717045,28.5330682 59.8575,28.6254545 59.7511364,28.7314773 L37.3578409,51.1247727 L37.3578409,34.3220455 C37.3578409,32.9096591 36.2134091,31.7652273 34.8010227,31.7652273 C33.3886364,31.7652273 32.2442045,32.9096591 32.2442045,34.3220455 L32.2442045,37.4461364 L19.0339773,37.4461364 C17.6215909,37.4461364 16.4771591,38.5905682 16.4771591,40.0029545 C16.4771591,41.4153409 17.6215909,42.5597727 19.0339773,42.5597727 L32.2442045,42.5597727 L32.2442045,57.2976136 C32.2442045,58.71 33.3886364,59.8544318 34.8010227,59.8544318 L115.340795,59.8544318 C115.425,59.8544318 115.509205,59.85 115.593068,59.8418182 C115.632273,59.8380682 115.670114,59.8305682 115.708636,59.8251136 C115.752955,59.8189773 115.796591,59.8138636 115.840227,59.8053409 Z M112.784318,51.1251136 L90.3906818,28.7318182 C90.3763636,28.7175 90.3610227,28.7055682 90.3463636,28.6919318 L107.181477,14.4088636 C108.258068,13.4952273 108.390341,11.8820455 107.476705,10.8051136 C106.56375,9.72886364 104.950568,9.59590909 103.872955,10.5098864 L75.1067045,34.9155682 L41.54625,5.20261364 L112.784318,5.20261364 L112.784318,51.1251136 Z M63.3675,32.3481818 C63.5498864,32.1657955 63.6978409,31.9626136 63.8134091,31.7464773 L73.37625,40.2129545 C73.8596591,40.6407955 74.4651136,40.8555682 75.07125,40.8555682 C75.6596591,40.8555682 76.2477273,40.6534091 76.7256818,40.2484091 L86.47125,31.98 C86.5598864,32.1095455 86.6597727,32.2332955 86.7746591,32.3481818 L109.167955,54.7414773 L40.9742045,54.7414773 L63.3675,32.3481818 Z"></path>
            <path d="M2.55681818,29.2077273 L45.73875,29.2077273 C47.1511364,29.2077273 48.2955682,28.0632955 48.2955682,26.6509091 C48.2955682,25.2385227 47.1511364,24.0940909 45.73875,24.0940909 L2.55681818,24.0940909 C1.14443182,24.0940909 0,25.2385227 0,26.6509091 C0,28.0632955 1.14443182,29.2077273 2.55681818,29.2077273 Z"></path>
            <path d="M7.03125,15.1176136 L26.4204545,15.1176136 C27.8328409,15.1176136 28.9772727,13.9731818 28.9772727,12.5607955 C28.9772727,11.1484091 27.8328409,10.0039773 26.4204545,10.0039773 L7.03125,10.0039773 C5.61886364,10.0039773 4.47443182,11.1484091 4.47443182,12.5607955 C4.47443182,13.9731818 5.61886364,15.1176136 7.03125,15.1176136 Z"></path>
            <path d="M21.3068182,48.2420455 L2.55681818,48.2420455 C1.14443182,48.2420455 0,49.3864773 0,50.7988636 C0,52.21125 1.14443182,53.3556818 2.55681818,53.3556818 L21.3068182,53.3556818 C22.7192045,53.3556818 23.8636364,52.21125 23.8636364,50.7988636 C23.8636364,49.3864773 22.7192045,48.2420455 21.3068182,48.2420455 Z"></path>
        </g>
    </g>
</svg>