<?xml version="1.0" encoding="UTF-8"?>
<svg width="24px" height="24px" viewBox="0 0 24 24" version="1.1" xmlns="http://www.w3.org/2000/svg" xmlns:xlink="http://www.w3.org/1999/xlink">
    <!-- Generator: Sketch 49 (51002) - http://www.bohemiancoding.com/sketch -->
    <title>ico_close</title>
    <desc>Created with Sketch.</desc>
    <defs></defs>
    <g id="Hotel-layout" stroke="none" stroke-width="1" fill="none" fill-rule="evenodd">
        <g id="Log-In" transform="translate(-932.000000, -110.000000)" fill="#1A2B48" fill-rule="nonzero">
            <g id="login" transform="translate(466.000000, 80.000000)">
                <path d="M476.852268,42.0036819 L466.228853,52.7013146 C465.933716,52.9985131 465.933716,53.4799972 466.228853,53.7771956 C466.376233,53.9259836 466.569741,54 466.762874,54 C466.956381,54 467.149514,53.9259836 467.296894,53.7771956 L478.000188,42.9991267 L488.703481,53.7771956 C488.851236,53.9259836 489.044369,54 489.237501,54 C489.430634,54 489.624142,53.9259836 489.771522,53.7771956 C490.066659,53.4799972 490.066659,52.9985131 489.771522,52.7013146 L479.148482,42.0036819 L489.778648,31.2984965 C490.073784,31.0012981 490.073784,30.519814 489.778648,30.2226156 C489.483511,29.9257948 489.005367,29.9257948 488.710606,30.2226156 L478.000563,41.0082372 L467.289394,30.2229932 C466.994258,29.9261724 466.516489,29.9261724 466.221352,30.2229932 C465.926216,30.5201916 465.926216,31.0016758 466.221352,31.2988742 L476.852268,42.0036819 Z" id="ico_close"></path>
            </g>
        </g>
    </g>
</svg>