<?xml version="1.0" encoding="UTF-8"?>
<svg width="15px" height="28px" viewBox="0 0 15 28" version="1.1" xmlns="http://www.w3.org/2000/svg" xmlns:xlink="http://www.w3.org/1999/xlink">
    <!-- Generator: Sketch 53.2 (72643) - https://sketchapp.com -->
    <title>right-arrow</title>
    <desc>Created with Sketch.</desc>
    <g id="Page-1" stroke="none" stroke-width="1" fill="none" fill-rule="evenodd">
        <g id="03_Rooms_List" transform="translate(-572.000000, -1558.000000)" fill="#FFFFFF" fill-rule="nonzero">
            <g id="list-rooms" transform="translate(134.000000, 640.000000)">
                <g id="room" transform="translate(0.000000, 680.000000)">
                    <g id="img" transform="translate(1.000000, 0.000000)">
                        <g id="right-arrow" transform="translate(437.000000, 238.000000)">
                            <path d="M1.77094017,27.5931624 C1.57948718,27.7846154 1.34017094,27.8803419 1.07692308,27.8803419 C0.813675214,27.8803419 0.574358974,27.7846154 0.382905983,27.5931624 C0,27.2102564 0,26.5880342 0.382905983,26.2051282 L12.5880342,14 L0.382905983,1.79487179 C-1.69309011e-15,1.41196581 -1.69309011e-15,0.78974359 0.382905983,0.406837607 C0.765811966,0.0239316239 1.38803419,0.0239316239 1.77094017,0.406837607 L14.6700855,13.3059829 C15.0529915,13.6888889 15.0529915,14.3111111 14.6700855,14.6940171 L1.77094017,27.5931624 L1.77094017,27.5931624 Z" id="Path"></path>
                        </g>
                    </g>
                </g>
            </g>
        </g>
    </g>
</svg>