<?xml version="1.0" encoding="UTF-8"?>
<svg width="28px" height="24px" viewBox="0 0 28 24" version="1.1" xmlns="http://www.w3.org/2000/svg" xmlns:xlink="http://www.w3.org/1999/xlink">
    <!-- Generator: Sketch 49 (51002) - http://www.bohemiancoding.com/sketch -->
    <title>right-quote-sign</title>
    <desc>Created with Sketch.</desc>
    <defs></defs>
    <g id="Page-1" stroke="none" stroke-width="1" fill="none" fill-rule="evenodd">
        <g id="12_Restaurant" transform="translate(-706.000000, -2606.000000)" fill="#5191FA" fill-rule="nonzero">
            <g id="review" transform="translate(135.000000, 2508.000000)">
                <g id="right-quote-sign" transform="translate(571.000000, 98.000000)">
                    <path d="M25.8128502,0.0054912892 L17.3389826,0.0054912892 C16.5696446,0.0054912892 15.9452544,0.629881533 15.9452544,1.39921951 L15.9452544,9.87308711 C15.9452544,10.642453 16.5696446,11.2668153 17.3389826,11.2668153 L21.3947317,11.2668153 C21.34177,13.4856585 20.8260906,15.2612404 19.8504808,16.5964321 C19.0811429,17.6500906 17.9160139,18.5225645 16.3577979,19.2110662 C15.6414216,19.5260488 15.3320139,20.3734355 15.6665087,21.0814774 L16.669993,23.1999443 C16.993338,23.8800557 17.793338,24.1783415 18.4846272,23.8800557 C20.3299233,23.0828432 21.8881394,22.073784 23.1591916,20.8473031 C24.7090453,19.350439 25.7710383,17.6612404 26.3452544,15.7769199 C26.9194983,13.8925993 27.2065784,11.3225645 27.2065784,8.06124042 L27.2065784,1.39921951 C27.2065784,0.629909408 26.5821603,0.0054912892 25.8128502,0.0054912892 Z" id="Shape"></path>
                    <path d="M2.98358188,23.8744808 C4.8065784,23.0800557 6.35640418,22.0710244 7.63584669,20.8473031 C9.19960976,19.350439 10.2672056,17.6668153 10.8414216,15.7964321 C11.4156376,13.9260488 11.7027178,11.3476516 11.7027178,8.06124042 L11.7027178,1.39921951 C11.7027178,0.629881533 11.0783554,0.0054912892 10.3089895,0.0054912892 L1.83512195,0.0054912892 C1.06578397,0.0054912892 0.441393728,0.629881533 0.441393728,1.39921951 L0.441393728,9.87308711 C0.441393728,10.642453 1.06578397,11.2668153 1.83512195,11.2668153 L5.89087108,11.2668153 C5.83790941,13.4856585 5.32222997,15.2612404 4.34662021,16.5964321 C3.57728223,17.6500906 2.41212544,18.5225645 0.853937282,19.2110662 C0.137560976,19.5260488 -0.17184669,20.3734355 0.162648084,21.0814774 L1.16334495,23.1943693 C1.48671777,23.8744808 2.29229268,24.175554 2.98358188,23.8744808 Z" id="Shape"></path>
                </g>
            </g>
        </g>
    </g>
</svg>